<svg width="16" height="16" viewBox="0 0 16 16" fill="none" xmlns="http://www.w3.org/2000/svg">
<path fill-rule="evenodd" clip-rule="evenodd" d="M6.46156 6.80081C5.70383 7.6045 5.7411 8.87028 6.54479 9.62801C7.34848 10.3857 8.61426 10.3485 9.37199 9.54479L11 7.81802V14.3C10.9989 14.6861 10.6917 14.9989 10.3125 15H0.6875C0.308259 14.9989 0.00109504 14.6861 0 14.3V1.7C0.00109504 1.31386 0.308259 1.00111 0.6875 1H6.76923L9.38266 3.70252L6.46156 6.80081Z" fill="#BDBDBD"/>
<path d="M15.8771 0.520824C15.9333 0.655592 15.9389 0.800187 15.9221 0.943379V7.1577C15.9221 7.62237 15.5454 8 15.0787 8C14.6134 8 14.2353 7.62237 14.2353 7.1577V2.89612L8.44004 8.68414C8.11113 9.01263 7.577 9.01263 7.24668 8.68414C6.91777 8.35564 6.91777 7.82218 7.24668 7.49228L13.0631 1.6846H8.77378C8.30853 1.6846 7.93042 1.30838 7.93042 0.842302C7.93042 0.377632 8.30853 0 8.77378 0H15.0984C15.1012 0 15.1054 0.00140384 15.1082 0.00140384C15.215 0.00280767 15.3205 0.0238652 15.4203 0.0645765C15.6269 0.150211 15.7913 0.31446 15.8771 0.520824Z" fill="#BDBDBD"/>
</svg>
