<svg width="16" height="16" viewBox="0 0 16 16" fill="none" xmlns="http://www.w3.org/2000/svg">
<path fill-rule="evenodd" clip-rule="evenodd" d="M1.6 2C0.72 2 0 2.675 0 3.5V12.5C0 13.3287 0.716 14 1.6 14H14.4C15.284 14 16 13.3287 16 12.5V5.5C16 4.67125 15.284 4 14.4 4H12V6C12 6.55228 12.4477 7 13 7H13.5C13.7761 7 14 7.22386 14 7.5C14 7.77614 13.7761 8 13.5 8H12.5C12.2239 8 12 8.22386 12 8.5C12 8.77614 12.2239 9 12.5 9H13C13.5523 9 14 9.44772 14 10V11C14 11.5523 13.5523 12 13 12H12C11.4477 12 11 11.5523 11 11V10C11 9.44772 10.5523 9 10 9H9.5C9.22386 9 9 8.77614 9 8.5C9 8.22386 9.22386 8 9.5 8H10.5C10.7761 8 11 7.77614 11 7.5C11 7.22386 10.7761 7 10.5 7H9.5C9.22386 7 9 6.77614 9 6.5C9 6.22386 9.22386 6 9.5 6H10C10.5523 6 11 5.55228 11 5V4H8.8L7.2 2H1.6Z" fill="#70717A"/>
</svg>
