<svg width="16" height="16" viewBox="0 0 16 16" fill="none" xmlns="http://www.w3.org/2000/svg">
<path d="M1.6 2C0.72 2 0 2.675 0 3.5V12.5C0 13.3287 0.716 14 1.6 14H9C9 13.4477 8.55229 13 8 13H7.5C7.22386 13 7 12.7761 7 12.5C7 12.2239 7.22386 12 7.5 12H8.5C8.77614 12 9 11.7761 9 11.5C9 11.2239 8.77614 11 8.5 11H7.5C7.22386 11 7 10.7761 7 10.5C7 10.2239 7.22386 10 7.5 10H8.5C8.77614 10 9 9.77614 9 9.5C9 9.22386 8.77614 9 8.5 9H7.5C7.22386 9 7 8.77614 7 8.5C7 8.22386 7.22386 8 7.5 8H8.5C8.77614 8 9 7.77614 9 7.5C9 7.22386 8.77614 7 8.5 7H7.5C7.22386 7 7 6.77614 7 6.5C7 6.22386 7.22386 6 7.5 6H8C8.55229 6 9 5.55228 9 5L8.76906 3.96133L8.8 4L7.2 2H1.6Z" fill="#70717A"/>
<path d="M12 4V6C12 6.55228 12.4477 7 13 7H13.5C13.7761 7 14 7.22386 14 7.5C14 7.77614 13.7761 8 13.5 8H12.5C12.2239 8 12 8.22386 12 8.5C12 8.77614 12.2239 9 12.5 9H13.5C13.7761 9 14 9.22386 14 9.5C14 9.77614 13.7761 10 13.5 10H12.5C12.2239 10 12 10.2239 12 10.5C12 10.7761 12.2239 11 12.5 11H13.5C13.7761 11 14 11.2239 14 11.5C14 11.7761 13.7761 12 13.5 12H13C12.4477 12 12 12.4477 12 13V14H14.4C15.284 14 16 13.3287 16 12.5V5.5C16 4.67125 15.284 4 14.4 4H12Z" fill="#70717A"/>
</svg>
