<svg width="48" height="48" viewBox="0 0 48 48" fill="none" xmlns="http://www.w3.org/2000/svg">
<path d="M25.6874 9.5766L25.9812 9.875H26.4H43.2C45.2852 9.875 47 11.5942 47 13.75V38.125C47 40.2808 45.2852 42 43.2 42H4.8C2.71485 42 1 40.2808 1 38.125V8.875C1 6.73136 2.72685 5 4.8 5H21.1812L25.6874 9.5766Z" stroke="#BBBCC5" stroke-width="2"/>
<path fill-rule="evenodd" clip-rule="evenodd" d="M34.6 9.9C34.6 9.40294 35.0029 9 35.5 9V9C35.9971 9 36.4 9.40294 36.4 9.9L36.4 14.4375V16.25V17.0625C36.4 17.6148 36.8477 18.0625 37.4 18.0625H39.0937C39.5942 18.0625 40 18.4683 40 18.9688V18.9688C40 19.4693 39.5942 19.875 39.0937 19.875H37.4C36.8477 19.875 36.4 20.3228 36.4 20.875V21.6875V23.5V24.3125C36.4 24.8648 36.8477 25.3125 37.4 25.3125H39.0937C39.5942 25.3125 40 25.7182 40 26.2188V26.2188C40 26.7193 39.5942 27.125 39.0937 27.125H37.4C36.8477 27.125 36.4 27.5727 36.4 28.125V28.9375V30.75V31.5625C36.4 32.1148 36.8477 32.5625 37.4 32.5625H39C39.5523 32.5625 40 33.0103 40 33.5625V37C40 37.5523 39.5523 38 39 38H35.6C35.0477 38 34.6 37.5523 34.6 37L34.6 32.5626C34.6 32.5626 34.6 32.5625 34.6 32.5625V32.5625C34.6 32.5625 34.6 32.5625 34.6 32.5625V31.6563C34.6 31.1557 34.1942 30.75 33.6937 30.75H31.9062C31.4057 30.75 31 30.3442 31 29.8437V29.8437C31 29.3432 31.4057 28.9375 31.9063 28.9375H33.6938C34.1943 28.9375 34.6 28.5317 34.6 28.0312V27.125C34.6 27.125 34.6 27.125 34.6 27.125V27.125C34.6 27.125 34.6 27.125 34.6 27.125V25.3125C34.6 25.3125 34.6 25.3125 34.6 25.3125V25.3125C34.6 25.3125 34.6 25.3125 34.6 25.3125V24.4063C34.6 23.9058 34.1943 23.5 33.6938 23.5H31.9062C31.4057 23.5 31 23.0943 31 22.5938V22.5938C31 22.0933 31.4057 21.6875 31.9063 21.6875H33.6938C34.1943 21.6875 34.6 21.2818 34.6 20.7813V19.8751C34.6 19.8751 34.6 19.875 34.6 19.875V19.875C34.6 19.875 34.6 19.875 34.6 19.875V18.0626C34.6 18.0626 34.6 18.0625 34.6 18.0625V18.0625C34.6 18.0625 34.6 18.0625 34.6 18.0625V17.1563C34.6 16.6557 34.1942 16.25 33.6937 16.25H31.9062C31.4057 16.25 31 15.8442 31 15.3437V15.3437C31 14.8432 31.4057 14.4375 31.9063 14.4375H33.6C34.1523 14.4375 34.6 13.9897 34.6 13.4375V9.9Z" fill="#BBBCC5"/>
<path fill-rule="evenodd" clip-rule="evenodd" d="M6 25C5.44772 25 5 25.4477 5 26V37C5 37.5523 5.44772 38 6 38H24C24.5523 38 25 37.5523 25 37V26C25 25.4477 24.5523 25 24 25H6ZM11.6328 28.9307L7.95605 33.3301C7.89746 33.3984 7.8291 33.4798 7.75098 33.5742C7.67285 33.6654 7.611 33.7419 7.56543 33.8037C7.52311 33.8623 7.48893 33.9258 7.46289 33.9941C7.43685 34.0625 7.42383 34.1374 7.42383 34.2188C7.42383 34.4564 7.50358 34.6468 7.66309 34.79C7.82259 34.93 8.06022 35 8.37598 35H13.0244C13.249 35 13.4167 34.9495 13.5273 34.8486C13.638 34.7477 13.6934 34.611 13.6934 34.4385C13.6934 34.2725 13.638 34.1439 13.5273 34.0527C13.4167 33.9583 13.249 33.9111 13.0244 33.9111H9.23535L12.6729 29.8193C12.9398 29.5068 13.1172 29.2806 13.2051 29.1406C13.293 29.0007 13.3369 28.8135 13.3369 28.5791C13.3369 28.0876 13.0732 27.8418 12.5459 27.8418H8.47363C8.25228 27.8418 8.08464 27.8939 7.9707 27.998C7.86003 28.099 7.80469 28.2324 7.80469 28.3984C7.80469 28.5579 7.86003 28.6865 7.9707 28.7842C8.08464 28.8818 8.25228 28.9307 8.47363 28.9307H11.6328ZM14.6699 28.5986V34.2383C14.6699 34.5312 14.7367 34.7526 14.8701 34.9023C15.0068 35.0488 15.1794 35.1221 15.3877 35.1221C15.6058 35.1221 15.7816 35.0488 15.915 34.9023C16.0518 34.7559 16.1201 34.5345 16.1201 34.2383V28.5986C16.1201 28.3024 16.0518 28.0827 15.915 27.9395C15.7816 27.793 15.6058 27.7197 15.3877 27.7197C15.1761 27.7197 15.0036 27.793 14.8701 27.9395C14.7367 28.0859 14.6699 28.3057 14.6699 28.5986ZM19.1963 32.2119H20.5244C21.4131 32.2119 22.082 32.0247 22.5312 31.6504C22.9805 31.2728 23.2051 30.7194 23.2051 29.9902C23.2051 29.6484 23.1497 29.3408 23.0391 29.0674C22.9284 28.7939 22.7656 28.5628 22.5508 28.374C22.3392 28.1852 22.0869 28.0501 21.7939 27.9688C21.4977 27.8841 21.0745 27.8418 20.5244 27.8418H18.6641C18.3451 27.8418 18.1123 27.9102 17.9658 28.0469C17.8193 28.1836 17.7461 28.4115 17.7461 28.7305V34.248C17.7461 34.5345 17.8128 34.7526 17.9463 34.9023C18.0798 35.0488 18.2555 35.1221 18.4736 35.1221C18.682 35.1221 18.8545 35.0472 18.9912 34.8975C19.1279 34.7477 19.1963 34.528 19.1963 34.2383V32.2119ZM19.1963 28.9307H20.1729C20.8206 28.9307 21.2487 29.0365 21.457 29.248C21.6426 29.4466 21.7354 29.7038 21.7354 30.0195C21.7354 30.2832 21.6751 30.4964 21.5547 30.6592C21.4342 30.8219 21.2585 30.9391 21.0273 31.0107C20.7995 31.0824 20.5146 31.1182 20.1729 31.1182H19.1963V28.9307Z" fill="#BBBCC5"/>
</svg>
