<svg width="16" height="16" viewBox="0 0 16 16" fill="none" xmlns="http://www.w3.org/2000/svg">
<path d="M7.69231 3.08374C7.59876 3.02888 7.49264 3 7.38462 3C7.27659 3 7.17047 3.02888 7.07692 3.08374L2.91323 5.49957H0.615385C0.452174 5.49957 0.295649 5.56542 0.180242 5.68264C0.064835 5.79986 0 5.95885 0 6.12462V9.87494C0 10.0407 0.064835 10.1997 0.180242 10.3169C0.295649 10.4341 0.452174 10.5 0.615385 10.5H2.91323L7.07938 12.9177C7.17296 12.972 7.27893 13.0004 7.38669 13C7.49446 12.9996 7.60024 12.9705 7.69345 12.9156C7.78666 12.8607 7.86404 12.7818 7.91783 12.687C7.97163 12.5921 7.99997 12.4846 8 12.3751V3.62441C7.99989 3.5148 7.9714 3.40715 7.9174 3.31225C7.86339 3.21735 7.78577 3.13855 7.69231 3.08374ZM6.76923 11.2976L3.38462 9.33239C3.29095 9.27796 3.18484 9.24951 3.07692 9.24989H1.23077V6.74967H3.07692C3.18484 6.75005 3.29095 6.7216 3.38462 6.66717L6.76923 4.702V11.2976Z" fill="#BDBDBD"/>
<path d="M8.75083 6.1102C8.6828 6.15131 8.6262 6.2021 8.58427 6.25967C8.54234 6.31723 8.5159 6.38044 8.50646 6.44569C8.49702 6.51094 8.50476 6.57695 8.52924 6.63995C8.55372 6.70295 8.59447 6.76171 8.64915 6.81286C8.98406 7.15699 9.16458 7.57236 9.16458 7.99881C9.16458 8.42525 8.98406 8.84062 8.64915 9.18475C8.59387 9.23583 8.55255 9.29462 8.52758 9.35775C8.50261 9.42088 8.49448 9.48709 8.50366 9.55259C8.51283 9.61809 8.53913 9.68158 8.58104 9.7394C8.62295 9.79723 8.67965 9.84826 8.74788 9.88956C8.8161 9.93085 8.89451 9.9616 8.97859 9.98003C9.06266 9.99846 9.15076 10.0042 9.2378 9.99696C9.32485 9.9897 9.40913 9.96957 9.4858 9.93774C9.56246 9.9059 9.63001 9.86299 9.68454 9.81146C10.2135 9.29089 10.5 8.65394 10.5 7.99881C10.5 7.34367 10.2135 6.70673 9.68454 6.18616C9.57405 6.08305 9.41365 6.01714 9.23859 6.0029C9.06352 5.98866 8.88809 6.02725 8.75083 6.1102Z" fill="#BDBDBD"/>
<path d="M10.7841 4.12596C10.707 4.17296 10.6429 4.23102 10.5954 4.29682C10.548 4.36262 10.518 4.43488 10.5073 4.50947C10.4966 4.58405 10.5054 4.65951 10.5331 4.73152C10.5608 4.80354 10.607 4.8707 10.6689 4.92918C11.5418 5.81536 12.0135 6.89215 12.0135 7.99864C12.0135 9.10512 11.5418 10.1819 10.6689 11.0681C10.6063 11.1265 10.5595 11.1937 10.5312 11.2659C10.503 11.338 10.4938 11.4137 10.5041 11.4886C10.5145 11.5634 10.5443 11.636 10.5918 11.7021C10.6392 11.7682 10.7035 11.8266 10.7807 11.8738C10.858 11.921 10.9468 11.9561 11.042 11.9772C11.1372 11.9982 11.237 12.0048 11.3356 11.9965C11.4342 11.9882 11.5296 11.9652 11.6164 11.9288C11.7033 11.8924 11.7798 11.8434 11.8415 11.7845C12.9182 10.6915 13.5 9.36337 13.5 7.99864C13.5 6.6339 12.9182 5.3058 11.8415 4.2128C11.7164 4.09494 11.5347 4.0196 11.3365 4.00332C11.1382 3.98704 10.9395 4.03115 10.7841 4.12596Z" fill="#BDBDBD"/>
<path d="M13.2272 2.13227C13.1656 2.18162 13.1143 2.24259 13.0763 2.31169C13.0384 2.38078 13.0144 2.45666 13.0058 2.53498C12.9973 2.6133 13.0043 2.69254 13.0265 2.76816C13.0487 2.84378 13.0856 2.91431 13.1351 2.97571C14.2231 4.42587 14.8111 6.18791 14.8111 7.99857C14.8111 9.80922 14.2231 11.5713 13.1351 13.0214C13.085 13.0827 13.0476 13.1533 13.025 13.2291C13.0024 13.3049 12.995 13.3843 13.0033 13.463C13.0116 13.5416 13.0354 13.6178 13.0734 13.6872C13.1114 13.7566 13.1627 13.8179 13.2245 13.8674C13.2863 13.917 13.3574 13.9539 13.4335 13.976C13.5097 13.9982 13.5895 14.0051 13.6683 13.9963C13.7472 13.9876 13.8235 13.9635 13.893 13.9253C13.9624 13.8871 14.0236 13.8355 14.073 13.7737C15.324 12.1064 16 10.0804 16 7.99857C16 5.91673 15.324 3.89078 14.073 2.22345C13.9729 2.09969 13.8276 2.02058 13.669 2.00348C13.5105 1.98639 13.3516 2.03271 13.2272 2.13227V2.13227Z" fill="#BDBDBD"/>
</svg>
