<svg width="48" height="48" viewBox="0 0 48 48" fill="none" xmlns="http://www.w3.org/2000/svg">
<path d="M34.8852 0H13.1142H10.416H4C3.44772 0 3 0.447715 3 1V47C3 47.5523 3.44772 48 4 48H12.3024H13.1148H34.8852H35.6976H44C44.5523 48 45 47.5523 45 47V0.999999C45 0.447714 44.5523 0 44 0H36.3573H34.8852ZM11 45C11 45.5523 10.5523 46 10 46H6C5.44772 46 5 45.5523 5 45V3C5 2.44771 5.44772 2 6 2H10V2C10.5523 2 11 2.44772 11 3V45ZM35 45C35 45.5523 34.5523 46 34 46H14C13.4477 46 13 45.5523 13 45V3C13 2.44771 13.4477 2 14 2H34C34.5523 2 35 2.44772 35 3V45ZM37 3C37 2.44771 37.4477 2 38 2H42C42.5523 2 43 2.44772 43 3V45.063C43 45.6153 42.5523 46.063 42 46.063H38C37.4477 46.063 37 45.6153 37 45.063V3Z" fill="#BDBDBD"/>
<path fill-rule="evenodd" clip-rule="evenodd" d="M30.8853 19.2394L31.9286 21.0112C32.0613 21.2438 32.0044 21.5302 31.7958 21.6913L30.5629 22.6219C30.7715 23.5347 30.7715 24.4653 30.5629 25.3781L31.7958 26.3087C32.0044 26.4698 32.0613 26.7562 31.9286 26.9888L30.8853 28.7606C30.7526 28.9933 30.468 29.1007 30.2025 29.0112L28.723 28.5101C27.9264 29.2438 26.959 29.7808 25.8968 30.085L25.6502 31.5526C25.6123 31.821 25.3657 32 25.0812 32H22.9378C22.6533 32 22.4067 31.821 22.3688 31.5526L22.1032 30.085C21.041 29.7987 20.0736 29.2617 19.277 28.528L17.7975 29.0112C17.532 29.1007 17.2474 28.9933 17.1147 28.7606L16.0714 26.9888C15.9387 26.7562 15.9956 26.4698 16.2042 26.3087L17.4561 25.3781C17.2474 24.4653 17.2474 23.5347 17.4561 22.6219L16.2232 21.6913C15.9956 21.5302 15.9387 21.2438 16.0714 21.0112L17.1147 19.2394C17.2474 19.0067 17.532 18.8993 17.7975 18.9888L19.277 19.4899C20.0736 18.7562 21.041 18.2192 22.1032 17.915L22.3498 16.4474C22.3877 16.179 22.6343 16 22.9188 16H25.0622C25.3467 16 25.5933 16.179 25.6312 16.4474L25.8968 17.915C26.959 18.2013 27.9264 18.7383 28.723 19.472L30.2025 18.9888C30.468 18.8993 30.7526 19.0067 30.8853 19.2394ZM20.2667 24C20.2667 26.07 21.93 27.7333 24 27.7333C26.0515 27.7149 27.7149 26.0515 27.7333 24C27.7333 21.93 26.07 20.2667 24 20.2667C21.93 20.2667 20.2667 21.93 20.2667 24Z" fill="#BDBDBD"/>
<rect x="5" y="7" width="6" height="2" fill="#BDBDBD"/>
<rect x="37" y="7" width="6" height="2" fill="#BDBDBD"/>
<rect x="5" y="15" width="6" height="2" fill="#BDBDBD"/>
<rect x="37" y="15" width="6" height="2" fill="#BDBDBD"/>
<rect x="5" y="23" width="6" height="2" fill="#BDBDBD"/>
<rect x="37" y="23" width="6" height="2" fill="#BDBDBD"/>
<rect x="5" y="31" width="6" height="2" fill="#BDBDBD"/>
<rect x="37" y="31" width="6" height="2" fill="#BDBDBD"/>
<rect x="5" y="39" width="6" height="2" fill="#BDBDBD"/>
<rect x="37" y="39" width="6" height="2" fill="#BDBDBD"/>
</svg>
