<svg width="16" height="16" viewBox="0 0 16 16" fill="none" xmlns="http://www.w3.org/2000/svg">
<path d="M3 5C4.10457 5 5 4.10457 5 3C5 1.89543 4.10457 1 3 1C1.89543 1 1 1.89543 1 3C1 4.10457 1.89543 5 3 5Z" fill="#BDBDBD"/>
<path d="M8.5 5C9.88071 5 11 3.88071 11 2.5C11 1.11929 9.88071 0 8.5 0C7.11929 0 6 1.11929 6 2.5C6 3.88071 7.11929 5 8.5 5Z" fill="#BDBDBD"/>
<path fill-rule="evenodd" clip-rule="evenodd" d="M12.7458 8.81139L14.9038 7.51246C15.3927 7.20996 16.0165 7.58363 15.9997 8.18861V13.8114C15.9997 14.4164 15.3927 14.79 14.8869 14.4875L12.7458 13.1886V14.7367C12.7458 15.4306 12.2063 16 11.5488 16H1.19702C0.539504 16 0 15.4306 0 14.7367V7.26334C0 6.56939 0.539504 6 1.19702 6H11.5488C12.2063 6 12.7458 6.56939 12.7458 7.26334V8.81139ZM9.96429 9.50559L9.44267 8.61969C9.37628 8.50336 9.23402 8.44966 9.10125 8.49441L8.3615 8.73602C7.96318 8.36913 7.4795 8.10067 6.94839 7.95749L6.81562 7.22371C6.79665 7.08949 6.67336 7 6.5311 7H5.45942C5.31716 7 5.19387 7.08949 5.1749 7.22371L5.05161 7.95749C4.52051 8.10962 4.03682 8.37808 3.6385 8.74497L2.89875 8.49441C2.76598 8.44966 2.62372 8.50336 2.55733 8.61969L2.03571 9.50559C1.96933 9.62192 1.99778 9.7651 2.11158 9.84564L2.72804 10.311C2.62372 10.7673 2.62372 11.2327 2.72804 11.689L2.1021 12.1544C1.99778 12.2349 1.96933 12.3781 2.03571 12.4944L2.55733 13.3803C2.62372 13.4966 2.76598 13.5503 2.89875 13.5056L3.6385 13.264C4.03682 13.6309 4.52051 13.8993 5.05161 14.0425L5.18438 14.7763C5.20335 14.9105 5.32664 15 5.4689 15H6.54059C6.68284 15 6.80614 14.9105 6.8251 14.7763L6.94839 14.0425C7.4795 13.8904 7.96318 13.6219 8.3615 13.255L9.10125 13.5056C9.23402 13.5503 9.37628 13.4966 9.44267 13.3803L9.96429 12.4944C10.0307 12.3781 10.0022 12.2349 9.8979 12.1544L9.28144 11.689C9.38577 11.2327 9.38577 10.7673 9.28144 10.311L9.8979 9.84564C10.0022 9.7651 10.0307 9.62192 9.96429 9.50559ZM6.00001 12.8667C4.96502 12.8667 4.13334 12.035 4.13334 11C4.13334 9.96502 4.96502 9.13334 6.00001 9.13334C7.03499 9.13334 7.86667 9.96502 7.86667 11C7.85743 12.0258 7.02575 12.8574 6.00001 12.8667Z" fill="#BDBDBD"/>
</svg>
