<svg width="48" height="48" viewBox="0 0 48 48" fill="none" xmlns="http://www.w3.org/2000/svg">
<path d="M5.41889 47.9877H42.322C42.4037 47.9915 42.4836 48 42.5657 48C43.8777 48 45.0815 47.5313 46.0201 46.7531C47.2283 45.7589 48 44.2528 48 42.5697V12.5389C48 9.55126 45.5691 7.12076 42.5808 7.12076L27.8709 7.12058V5.41816C27.8709 2.4305 25.4398 0 22.4517 0H14.7099C11.7216 0 9.29068 2.43037 9.29068 5.41816V16.4087H5.41962C2.43087 16.4087 0 18.8391 0 21.8269V42.5693C0 45.5569 2.43092 47.9874 5.41917 47.9874L5.41889 47.9877ZM38.6997 42.6704C38.704 42.6374 38.7098 42.6043 38.7098 42.5695L38.7099 21.8271C38.7099 18.8395 36.279 16.409 33.2908 16.409L14.227 16.4088L15.4216 13.1517C16.4227 10.3934 19.4783 8.96132 22.2324 9.96078L42.3322 17.3002C45.0905 18.3008 46.5221 21.3568 45.5232 24.1113L38.7071 42.8257C38.704 42.7742 38.7008 42.7224 38.6996 42.6702L38.6997 42.6704ZM39.5584 45.0133L46.4371 26.1268V42.5813C46.4371 43.7775 45.8915 44.8479 45.0361 45.5583C44.3673 46.1081 43.5123 46.4388 42.5812 46.4388H42.3225C41.2083 46.3685 40.2206 45.8293 39.5586 45.0128L39.5584 45.0133ZM10.8385 5.41863C10.8385 3.28479 12.575 1.5489 14.7096 1.5489H22.4514C24.5495 1.5489 26.3225 3.3211 26.3225 5.41863V7.89535C26.3225 8.32313 26.6692 8.66983 27.097 8.66983H42.5807C44.7151 8.66983 46.4518 10.4058 46.4518 12.5396L46.4374 18.8217C45.6549 17.4905 44.4235 16.4127 42.8623 15.8462L22.7616 8.50632C19.2049 7.21674 15.258 9.06307 13.9669 12.6216L12.5774 16.4092H10.8382L10.8385 5.41863ZM1.54773 21.8273C1.54773 19.6935 3.2842 17.9576 5.4188 17.9576H33.2902C35.4246 17.9576 37.1613 19.6935 37.1613 21.8273L37.1467 42.5822C37.1467 44.091 37.768 45.4563 38.7665 46.4398L33.29 46.4396H5.41901C3.28464 46.4396 1.54795 44.7037 1.54795 42.5699L1.54773 21.8273Z" fill="#BDBDBD"/>
</svg>
