<svg width="48" height="48" viewBox="0 0 48 48" fill="none" xmlns="http://www.w3.org/2000/svg">
<path fill-rule="evenodd" clip-rule="evenodd" d="M25.5733 47.5907C26.0632 48.1364 26.8962 48.1364 27.435 47.5907C27.9739 47.045 27.9738 46.2017 27.4839 45.7052L24.7405 42.927C22.4379 40.5953 18.7146 40.5953 16.4121 42.927C15.1873 44.1673 13.2766 44.3658 11.954 43.324C10.3863 42.0836 10.2882 39.7023 11.66 38.3131L13.7667 36.1797C16.3142 37.9161 19.8416 37.6185 22.0951 35.3364L22.9796 34.4407C22.9359 34.409 22.8941 34.3735 22.8548 34.3339L13.7046 25.1188C13.6292 25.0428 13.5685 24.9578 13.5225 24.8673L12.5907 25.8108C10.3372 28.093 10.0433 31.6652 11.758 34.2449L9.79835 36.2294C7.54482 38.5612 7.34882 42.2823 9.5534 44.7132C11.856 47.1938 15.7262 47.2931 18.1268 44.8621L18.1757 44.8125C19.4984 43.5226 21.6051 43.5226 22.8788 44.8125L25.5733 47.5907ZM17.681 24.2778L16.1238 22.7096C15.7347 22.3177 15.1015 22.3154 14.7096 22.7046C14.3177 23.0937 14.3155 23.7269 14.7046 24.1188L23.8548 33.3339C24.244 33.7258 24.8771 33.728 25.269 33.3389C25.6609 32.9498 25.6632 32.3166 25.274 31.9247L23.5761 30.2148L26.2104 27.5471C26.6512 27.051 26.7003 26.3068 26.3083 25.8107C25.8184 25.2154 24.9365 25.2154 24.4466 25.7115L21.783 28.4089L19.4741 26.0837L22.0951 23.4294C22.5359 22.9333 22.585 22.1891 22.1931 21.693C21.7031 21.0977 20.8212 21.0977 20.3313 21.5938L17.681 24.2778ZM32.269 25.3389C32.5899 25.0203 32.6496 24.538 32.447 24.1586L34.3918 22.1892C36.6453 19.907 36.9392 16.3349 35.2246 13.7551L37.1842 11.7706C39.4867 9.43887 39.6337 5.71786 37.4291 3.28685C35.1756 0.706928 31.2563 0.657316 28.9048 3.08837L28.8558 3.13795C27.5821 4.42783 25.4754 4.42783 24.1527 3.13795L21.4582 0.409271C20.9194 -0.136424 20.0864 -0.136424 19.5965 0.409271C19.0577 0.954966 19.0577 1.7985 19.5965 2.29462L22.3399 5.07287C24.6424 7.40457 28.3658 7.40457 30.6683 5.07287C31.8931 3.88214 33.8038 3.63407 35.1265 4.67591C36.7433 5.91622 36.8412 8.29769 35.4204 9.68676L33.3137 11.8202C30.7663 10.0837 27.2389 10.3814 24.9853 12.6635L23.0397 14.6338C22.6482 14.3192 22.0744 14.3424 21.7096 14.7046C21.3177 15.0937 21.3155 15.7269 21.7046 16.1188L30.8548 25.3339C31.244 25.7258 31.8771 25.728 32.269 25.3389Z" fill="#BDBDBD"/>
</svg>
