<svg width="72" height="65" viewBox="0 0 72 65" fill="none" xmlns="http://www.w3.org/2000/svg">
<path d="M31.7219 33.7022L28.6081 28.1089L27.4219 30.1065L24.6081 28.753V19.891L16.7493 15.4237V10.4116H19.0847L15.7113 5L12.338 10.4479H14.6734V15.46L6.8146 19.891V28.7893L4.30009 30.7305L3.11386 28.7329L0 34.3262L6.48721 34.4714L5.30098 32.4739L7.85255 30.5327L15.7113 34.9637L23.5701 30.5327L26.3839 31.8862L25.2347 33.8474L31.7219 33.7022ZM8.8905 22.2155L14.6734 25.4843V32.0218L8.8905 28.753V22.2155ZM15.7113 23.7409L9.92845 20.4722L15.7113 17.2034L21.4942 20.4722L15.7113 23.7409ZM16.7493 32.0218V25.4843L22.5322 22.2155V28.753L16.7493 32.0218Z" fill="#70717A"/>
<path d="M69.9531 30.2392C69.8592 29.5796 69.6304 28.954 69.2729 28.3801C68.961 27.8792 68.5609 27.4337 68.0833 27.0551L68.0846 27.0539L63.0687 23.2067C63.0651 23.2036 63.0613 23.2006 63.0574 23.1978C62.8907 23.0702 62.6649 23 62.4219 23C62.1786 23 61.944 23.0704 61.7616 23.1982C61.5655 23.335 61.4534 23.5165 61.4456 23.7097C61.4384 23.8899 61.5245 24.0634 61.6887 24.1986C62.0115 24.453 62.3336 24.7129 62.6561 24.9731C62.9692 25.2257 63.2917 25.4859 63.6127 25.7392L57.469 25.735C56.7664 25.735 56.288 26.0645 56.1896 26.6161C56.1464 26.8577 56.2227 27.1233 56.3933 27.3268C56.5743 27.5425 56.837 27.6615 57.1331 27.6615L57.6015 27.6618C58.2485 27.6618 58.8984 27.6602 59.5473 27.6586L60.1662 27.6572L54.5904 31.7767L54.5682 31.7928C54.2568 32.0312 54.0529 32.3654 54.0089 32.7097C53.9755 32.9706 54.0365 33.2089 54.1852 33.3993C54.3624 33.6262 54.6391 33.751 54.9643 33.751C55.2839 33.751 55.6099 33.6301 55.8828 33.41L58.8939 30.9492C58.881 31.0693 58.8654 31.2456 58.8672 31.3736C58.8705 31.5762 58.9357 31.9826 59.0388 32.3127C59.2518 32.9908 59.6107 33.6114 60.1053 34.1563C60.62 34.7232 61.2469 35.1728 61.9683 35.4921C62.7311 35.829 63.551 36 64.4055 36H64.4134C65.2706 35.9979 66.0931 35.8242 66.8583 35.4835C67.581 35.1604 68.2075 34.709 68.7203 34.1422C69.2143 33.5944 69.5727 32.9729 69.7853 32.2953C69.8905 31.9598 69.9579 31.6137 69.9862 31.2633C70.0125 30.9247 70.0012 30.5801 69.9531 30.2392V30.2392ZM64.4679 33.4898C62.5849 33.4898 61.0578 32.1257 61.0578 30.4428C61.0578 28.7602 62.5849 27.3961 64.4679 27.3961C66.351 27.3961 67.8779 28.7602 67.8779 30.4428C67.878 32.1257 66.351 33.4898 64.4679 33.4898ZM66.4345 30.1751C66.4623 30.6773 66.2614 31.1437 65.9086 31.4889C65.5497 31.8406 65.0377 32.0615 64.465 32.0615C63.8927 32.0615 63.3805 31.8406 63.0215 31.4889C62.6689 31.1437 62.4684 30.6774 62.4961 30.1755C62.5231 29.6876 62.7614 29.257 63.1204 28.952C63.4733 28.6522 63.9473 28.4693 64.465 28.4693C64.9828 28.4693 65.4566 28.6523 65.8096 28.952C66.1688 29.257 66.4071 29.6873 66.4345 30.1751V30.1751Z" fill="#BBBCC5"/>
<g clip-path="url(#clip0_7063_550)">
<path d="M27.0147 45.4181C24.8573 45.8088 23.4513 46.6114 22.5333 47.3648C22.4187 47.8081 22.3513 48.2688 22.3513 48.7461C22.3513 51.9421 25.08 54.5328 28.4453 54.5328C28.9473 54.5328 29.4233 54.4674 29.876 54.3568C30.848 53.1248 31.6433 50.9801 31.846 49.2048C32.0587 47.3474 32.4813 46.7848 33.0073 46.4181C33.194 46.2881 33.39 46.1888 33.5973 46.1414C33.006 44.8768 31.9713 43.8828 30.6347 43.3628C30.638 43.3774 30.644 43.3894 30.6473 43.4041C30.9013 44.4901 29.7433 44.9241 27.0147 45.4181ZM34.4527 47.2654C34.4313 47.2234 34.41 47.1761 34.388 47.1228C33.992 46.1528 33.04 46.7814 32.7887 47.3521C32.294 48.4761 32.3667 48.9668 32.166 50.1061C31.9653 51.2454 31.2747 53.4388 30.2807 54.5648C28.8607 56.1728 27.3073 56.8874 25.1293 56.6794C22.9513 56.4714 21.2727 54.6248 20.6513 53.2861C20.13 52.1628 20.0513 50.8888 20.668 49.2374C21.2847 47.5861 23.1347 46.2434 24.826 45.5981C26.5173 44.9528 27.856 44.8894 28.7993 44.6148C29.7427 44.3394 30.2987 43.8861 30.264 43.5001C30.2207 43.0214 29.7593 42.7668 29.4987 42.6601C28.712 42.4074 27.8713 42.2708 26.998 42.2708C22.5907 42.2708 19.018 45.7494 19.018 50.0408C19.018 54.3321 22.5907 57.8108 26.998 57.8108C31.4053 57.8108 34.978 54.3321 34.978 50.0408C34.9773 49.0628 34.7913 48.1274 34.4527 47.2654Z" fill="#BBBCC5"/>
</g>
<path d="M58.7832 45C60.1853 45 61.3193 46.1618 61.3193 47.5986V56.709C61.3193 58.1458 60.1853 59.3076 58.7832 59.3076H49.5361C48.1341 59.3076 47.0001 58.1458 47 56.709V47.5986C47 46.1618 48.134 45 49.5361 45H58.7832ZM57.2676 50.1543C56.8441 50.1543 56.4922 50.2224 56.2119 50.3691C55.9554 50.4914 55.7351 50.6871 55.5859 50.9316C55.4547 51.1578 55.3828 51.4081 55.3828 51.6709C55.3768 51.8849 55.4241 52.0993 55.5195 52.2949C55.6329 52.5028 55.7887 52.68 55.9736 52.8145C56.2361 52.9978 56.5162 53.1449 56.8203 53.2549C57.1127 53.3711 57.3098 53.4625 57.4053 53.542C57.5005 53.6213 57.5487 53.7007 57.5488 53.7861C57.5488 53.896 57.4829 54 57.3877 54.043C57.2804 54.098 57.119 54.1289 56.8926 54.1289C56.654 54.1289 56.4151 54.0982 56.1885 54.0371C55.926 53.976 55.6809 53.8779 55.4482 53.7373C55.4304 53.7252 55.4124 53.7193 55.3945 53.7314C55.3768 53.7436 55.3712 53.7678 55.3711 53.7861V54.8506C55.3652 54.8995 55.3948 54.9424 55.4365 54.9668C55.6274 55.0585 55.8362 55.1254 56.0449 55.1621C56.3134 55.2171 56.582 55.2422 56.8564 55.2422C57.286 55.2422 57.6442 55.1743 57.9365 55.0459C58.2049 54.9358 58.4375 54.7464 58.6045 54.502C58.7596 54.2635 58.8429 53.9758 58.8369 53.6885C58.8428 53.4684 58.7956 53.2542 58.7002 53.0586C58.5869 52.8508 58.4253 52.6801 58.2285 52.5518C57.9421 52.3683 57.6318 52.2155 57.3096 52.1055C57.1664 52.0443 57.023 51.9767 56.8857 51.9033C56.8084 51.8606 56.7372 51.8054 56.6836 51.7383C56.6478 51.6894 56.624 51.6341 56.624 51.5791C56.6241 51.5242 56.6411 51.4629 56.6709 51.4141C56.7127 51.3529 56.7789 51.3103 56.8564 51.292C56.9696 51.2615 57.0947 51.243 57.2139 51.249C57.4406 51.249 57.6621 51.2792 57.8828 51.3281C58.0855 51.3709 58.2762 51.4384 58.4551 51.5361C58.4789 51.5484 58.5089 51.5483 58.5625 51.5361C58.5803 51.5239 58.5927 51.4999 58.5928 51.4756V50.4785C58.5927 50.4541 58.587 50.4297 58.5811 50.4053C58.5691 50.3808 58.5444 50.3567 58.5205 50.3506C58.3595 50.2834 58.1867 50.2344 58.0078 50.21C57.7632 50.1733 57.5122 50.1543 57.2676 50.1543ZM51.5879 48.6445C51.4031 48.6506 51.2303 48.6502 51.0693 48.6562C50.9082 48.6624 50.7584 48.6628 50.6152 48.6689C50.4781 48.675 50.3826 48.6748 50.2812 48.6748C50.2396 48.6748 50.2217 48.6995 50.2217 48.7422V55.0342C50.2218 55.0889 50.2455 55.1132 50.293 55.1133H51.4512C51.4927 55.107 51.5225 55.07 51.5166 55.0273V53.0654C51.6299 53.0654 51.7138 53.0652 51.7734 53.0713C51.8331 53.0774 51.9285 53.0771 52.0713 53.0771C52.5605 53.0771 53.0084 53.022 53.4141 52.8691C53.8017 52.7224 54.1355 52.4653 54.374 52.123C54.6126 51.7807 54.7324 51.347 54.7324 50.8213C54.7324 50.5461 54.6842 50.2832 54.5947 50.0264C54.4993 49.7635 54.3501 49.5248 54.1592 49.3291C53.9326 49.1031 53.6584 48.932 53.3604 48.8281C53.0262 48.6997 52.6201 48.6387 52.1309 48.6387C51.9519 48.6387 51.7728 48.6384 51.5879 48.6445ZM52.1729 49.8428C52.4174 49.8367 52.6562 49.8731 52.877 49.9648C53.0498 50.0321 53.1925 50.1547 53.2939 50.3135C53.3893 50.4785 53.4375 50.668 53.4316 50.8574C53.4316 51.1262 53.3722 51.3345 53.2471 51.4873C53.1159 51.6401 52.9486 51.7564 52.7578 51.8115C52.5371 51.8849 52.304 51.9219 52.0713 51.9219H51.7549C51.6834 51.9219 51.6059 51.9153 51.5225 51.9092V49.8555C51.5642 49.8494 51.6475 49.8426 51.7666 49.8486C51.88 49.8425 52.0177 49.8428 52.1729 49.8428Z" fill="#EEEEEE"/>
<path fill-rule="evenodd" clip-rule="evenodd" d="M46.7926 9.00153C47.4861 8.96113 47.9844 9.72825 48.1934 10.2433C48.3125 10.5362 48.4121 11.0138 48.1249 11.1586C47.9005 11.272 47.632 11.2897 47.3144 11.3323C46.556 11.4333 46.0738 11.2478 45.7995 10.7776C45.7208 10.6429 45.6384 10.4054 45.6873 10.1696C45.7829 9.70433 46.0635 9.33366 46.4145 9.12406C46.4799 9.08472 46.644 9.01023 46.7926 9.00153Z" fill="#BBBCC5"/>
<path d="M44.6675 11.8032C45.0738 11.8039 45.4984 11.8714 45.8941 11.9791C46.3271 12.0974 46.7341 12.2538 47.0753 12.3931C47.7289 12.6604 48.208 12.8555 48.208 12.8555C48.208 12.8555 48.5381 12.6218 48.6639 12.5349C48.9685 12.3427 49.2521 12.1491 49.6276 12.0653C49.7491 12.0383 49.9753 12.0372 50.0885 12.0578C50.5331 12.1389 50.803 12.3372 50.8406 12.7238C50.8916 13.2433 50.2443 13.7932 50.092 13.9398C49.9559 14.0706 49.3031 14.7024 48.5004 14.7684C48.1097 14.8008 47.7404 14.669 47.4747 14.5546C47.386 14.5163 47.155 14.3983 47.155 14.3983C47.155 14.3983 46.7983 14.7464 46.4708 15.0979C46.1418 15.4509 45.3268 16.4728 45.3268 16.4748C46.2263 16.4086 47.2594 16.7027 47.9145 16.9619C49.4552 17.5718 50.9418 18.6449 51.9463 20.0962C52.2912 20.5951 52.6201 21.1456 52.8691 21.7363C52.9374 21.8986 53.072 22.2423 52.9521 22.389C52.8278 22.5407 52.5414 22.3607 52.3801 22.2801C52.0867 22.1342 51.4616 21.6447 51.0099 21.2734C50.8033 21.1034 50.4843 20.8096 50.4287 20.5502C50.3934 20.3841 50.4917 20.1671 50.5256 19.9968C50.5801 19.7247 50.4252 19.5144 50.318 19.3775C50.0665 19.0561 49.6351 18.8553 49.2294 18.6923C48.4239 18.3678 47.8592 18.2642 46.4937 18.087C45.1284 17.91 44.2146 18.0215 44.1134 18.0256C44.0082 18.1536 43.8729 18.3185 43.7676 18.4465C43.4771 18.7551 42.3963 19.8488 42.0838 20.0915C41.5247 20.5255 40.9001 20.9465 40.2387 21.2734C38.9656 21.9024 38.1536 21.803 38.0612 21.6988C37.969 21.5947 37.9655 21.2984 38.1593 20.8914C38.355 20.481 38.8202 19.9487 39.0347 19.7229C39.2489 19.4965 39.6469 19.1222 40.1879 18.7017C40.9353 18.1202 42.0721 17.5349 42.6374 17.2505C43.426 16.8532 44.2153 16.6625 44.4134 16.6075C45.4977 15.0805 46.646 14.1114 46.646 14.1114C46.646 14.1114 46.1854 13.8095 45.9909 13.6764C45.5677 13.3869 45.1507 13.0768 44.6625 12.8585C44.3551 12.7213 43.8472 12.5274 43.4077 12.6414C42.8667 12.7815 42.1545 13.1976 41.8687 13.557C41.7735 13.6763 41.6929 13.8946 41.6611 14.0804C41.6357 14.2271 41.675 14.4408 41.6364 14.5461C41.5686 14.7307 41.2748 14.894 41.0461 14.9968C40.7352 15.1362 40.4159 15.2802 40.0617 15.3722C39.9423 15.403 39.7318 15.4612 39.6667 15.3707C39.5804 15.2505 39.7149 15.0703 39.7606 14.9874C39.9464 14.6494 40.1696 14.3658 40.4047 14.0783C41.1214 13.2021 41.9016 12.5492 42.9972 12.1022C43.2722 11.99 43.8001 11.802 44.6675 11.8032ZM50.0207 12.5635C49.8341 12.5815 49.6292 12.6172 49.4606 12.6847C49.2117 12.7838 48.9902 12.9041 48.762 13.0453C49.2655 13.2021 49.8446 13.2911 50.2996 13.0088C50.4103 12.9399 50.51 12.847 50.5148 12.7367C50.5205 12.6124 50.2071 12.5457 50.0207 12.5635ZM43.2078 18.1391C43.2078 18.1391 42.9557 18.1864 42.8202 18.2146C42.685 18.2431 42.3726 18.3346 42.1633 18.3904C41.5904 18.5427 40.0884 19.1401 39.4129 19.8315C39.1925 20.057 39.0194 20.326 38.8911 20.6465C38.8558 20.7344 38.7844 20.9383 38.8562 21.0609C38.9173 21.1651 39.0989 21.1881 39.2545 21.1531C39.5742 21.0813 39.8624 20.9464 40.1188 20.8016C41.0827 20.2567 42.0085 19.4655 42.5836 18.8293C42.7698 18.6231 43.0083 18.3689 43.0757 18.2921C43.1432 18.2146 43.2078 18.1391 43.2078 18.1391Z" fill="#BBBCC5"/>
<defs>
<clipPath id="clip0_7063_550">
<rect width="16" height="16" fill="white" transform="translate(19 42)"/>
</clipPath>
</defs>
</svg>
