<svg width="16" height="16" viewBox="0 0 16 16" fill="none" xmlns="http://www.w3.org/2000/svg">
<path d="M6.37269 0C5.6418 0.161147 4.91876 0.385538 4.2409 0.723918C4.2564 1.31754 4.2951 1.88632 4.37354 2.46407C4.11029 2.63134 3.83363 2.7749 3.58775 2.97071C3.33792 3.16132 3.08273 3.34365 2.85652 3.56658C2.40459 3.27013 1.92632 2.99152 1.43356 2.7456C0.902393 3.31253 0.405711 3.92445 0 4.60918C0.318846 5.10555 0.660828 5.60443 0.977547 5.9935V9.37544V9.80502V10.196C0.985298 10.196 0.993105 10.1963 1.00078 10.197L3.59853 10.4454C3.7346 10.4584 3.84123 10.5671 3.8507 10.7023L3.93082 11.8396L6.19683 12L6.35289 10.9503C6.37313 10.8142 6.4909 10.7133 6.6297 10.7133H9.3704C9.50913 10.7133 9.62687 10.8142 9.64711 10.9503L9.80317 12L12.0693 11.8396L12.1493 10.7023C12.1588 10.5671 12.2654 10.4585 12.4015 10.4454L14.9982 10.197C15.0059 10.1963 15.0136 10.196 15.0213 10.196V9.8606L15.0225 9.86033V5.9935C15.3883 5.53679 15.7346 5.03303 16 4.60918C15.5944 3.92445 15.0975 3.31253 14.5664 2.7456C14.0737 2.99152 13.5952 3.27013 13.1433 3.56658C12.9172 3.34365 12.6624 3.16132 12.4123 2.97071C12.1664 2.7749 11.8894 2.63134 11.6266 2.46407C11.7049 1.88632 11.7436 1.31754 11.7592 0.723918C11.0813 0.385538 10.3583 0.161147 9.62703 0C9.33507 0.486644 9.0681 1.01368 8.83557 1.52886C8.55983 1.48317 8.28283 1.46623 8.00544 1.46295V1.46249C8.0035 1.46249 8.0017 1.46295 8.00005 1.46295C7.99833 1.46295 7.99647 1.46249 7.99475 1.46249V1.46295C7.71686 1.46623 7.44006 1.48317 7.16425 1.52886C6.93186 1.01368 6.66508 0.486644 6.37269 0ZM4.31749 6.14763C5.18217 6.14763 5.88304 6.84218 5.88304 7.69945C5.88304 8.55729 5.18217 9.25219 4.31749 9.25219C3.45325 9.25219 2.75223 8.55729 2.75223 7.69945C2.75223 6.84218 3.45325 6.14763 4.31749 6.14763ZM11.6827 6.14763C12.5469 6.14763 13.2478 6.84218 13.2478 7.69945C13.2478 8.55729 12.5469 9.25219 11.6827 9.25219C10.8179 9.25219 10.1171 8.55729 10.1171 7.69945C10.1171 6.84218 10.8179 6.14763 11.6827 6.14763ZM7.99986 7.05573C8.27818 7.05573 8.5043 7.25937 8.5043 7.50992V8.93923C8.5043 9.18999 8.27818 9.39342 7.99986 9.39342C7.72154 9.39342 7.49598 9.18999 7.49598 8.93923V7.50992C7.49598 7.25937 7.72154 7.05573 7.99986 7.05573Z" fill="#70717A"/>
<path d="M12.6909 11.0305L12.6104 12.1795C12.6007 12.318 12.4902 12.4283 12.3513 12.4382L9.5842 12.635C9.57745 12.6355 9.5707 12.6357 9.56403 12.6357C9.42652 12.6357 9.30789 12.5351 9.28757 12.3975L9.12889 11.3249H6.87111L6.71243 12.3975C6.69111 12.5419 6.56164 12.6457 6.4158 12.635L3.64875 12.4382C3.5098 12.4283 3.39928 12.318 3.38959 12.1795L3.30914 11.0305L0.973267 10.806C0.974343 11.0562 0.977572 11.3303 0.977572 11.3849C0.977572 13.8439 4.10706 15.0258 7.99523 15.0394H7.99996H8.00477C11.8929 15.0258 15.0214 13.8439 15.0214 11.3849C15.0214 11.3293 15.0247 11.0563 15.0259 10.806L12.6909 11.0305Z" fill="#70717A"/>
<path d="M5.5063 7.83076C5.5063 8.40262 5.04131 8.8661 4.46715 8.8661C3.89329 8.8661 3.42801 8.40262 3.42801 7.83076C3.42801 7.2589 3.89329 6.79498 4.46715 6.79498C5.04131 6.79498 5.5063 7.2589 5.5063 7.83076Z" fill="#70717A"/>
<path d="M10.4938 7.83076C10.4938 8.40262 10.9586 8.8661 11.5323 8.8661C12.1066 8.8661 12.5715 8.40262 12.5715 7.83076C12.5715 7.2589 12.1066 6.79498 11.5323 6.79498C10.9586 6.79498 10.4938 7.2589 10.4938 7.83076Z" fill="#70717A"/>
</svg>
