<svg width="16" height="16" viewBox="0 0 16 16" fill="none" xmlns="http://www.w3.org/2000/svg">
<path d="M8 0C3.58894 0 0 3.58894 0 8C0 12.4111 3.58894 16 8 16C12.4111 16 16 12.4111 16 8C16 3.58894 12.4111 0 8 0ZM8 1.23077C11.7452 1.23077 14.7692 4.25481 14.7692 8C14.7692 11.7452 11.7452 14.7692 8 14.7692C4.25481 14.7692 1.23077 11.7452 1.23077 8C1.23077 4.25481 4.25481 1.23077 8 1.23077ZM8 3.07692C5.07212 3.59375 2.46154 6.29327 2.46154 9.23077C3.89423 6.70192 4.85096 6.51923 5.11538 6.51923C5.37981 6.51923 5.51923 6.65625 5.51923 6.96154V10.7308C5.51923 11.1995 4.60817 11.1226 4.30769 11.0769C5.42067 12.7332 8 12.9231 8 12.9231L9.23077 11.6923L10.4615 12.3077C12.4038 11.4183 13.5385 9.51442 13.5385 9.23077C12.6947 10.1611 11.8558 10.4615 11.6923 10.4615C11.5288 10.4615 11.0769 10.3774 11.0769 10.1538V5.69231C11.0769 5.30529 11.9712 4.1226 12.3077 3.69231C10.0865 4.27404 9.44231 5.28846 9.44231 5.28846C9.44231 5.28846 9.27404 4.92308 8.61539 4.92308C8.86058 5.13462 9.23077 5.70673 9.23077 6.15385V9.92308C9.23077 9.92308 8.42789 10.4615 8 10.4615C7.57212 10.4615 7.36539 10.2885 7.36539 9.96154C7.36539 9.63462 7.38462 5.53846 7.38462 5.53846C7.38462 5.53846 6.76923 5.76442 6.76923 4.5C6.76923 3.86779 8 3.07692 8 3.07692Z" fill="#70717A"/>
</svg>
