<svg width="48" height="48" viewBox="0 0 48 48" fill="none" xmlns="http://www.w3.org/2000/svg">
<path d="M16.106 8.5728C16.2942 8.76602 16.5525 8.875 16.8223 8.875H24.2002C25.7471 8.87511 27 10.1616 27 11.75V18C27 18.5523 26.5523 19 26 19C25.4477 19 25 18.5523 25 18V11.75C25 11.2161 24.5931 10.8751 24.2002 10.875H15.9776C15.7078 10.875 15.4495 10.766 15.2613 10.5728L14.9668 10.2705L13.0503 8.30235C12.862 8.10904 12.6037 8 12.3338 8H3.7998C3.41394 8.00012 3 8.34824 3 8.875V25.125C3 25.6589 3.40694 25.9999 3.7998 26H16C16.5523 26 17 26.4477 17 27C17 27.4977 16.6516 28 16.1539 28H3.7998C2.25289 27.9999 1 26.7134 1 25.125V8.875C1 7.29382 2.25989 6.00011 3.7998 6H13.1777C13.4475 6 13.7058 6.10898 13.894 6.3022L16.106 8.5728Z" fill="#BBBCC5"/>
<path d="M21.7998 22H31.1787L33.6836 24.5723L33.9775 24.875H44.2002C45.1701 24.8751 46 25.6888 46 26.75V41.125C46 42.1862 45.1701 42.9999 44.2002 43H21.7998C20.8299 42.9999 20 42.1862 20 41.125V23.875C20 22.821 20.8369 22.0001 21.7998 22Z" stroke="#BBBCC5" stroke-width="2"/>
<path d="M15.0576 36.9129C14.1492 37.8214 12.2792 39.6913 11.3707 40.5998C11.1285 40.842 10.9119 40.8072 10.9164 40.4331C10.9222 39.9392 10.9217 39.3482 10.9915 38.5095V38.5095C10.9915 38.5095 7.69027 39.3116 5.9906 36.9003C4.29833 34.4964 6.49982 31.7921 6.83395 32.0051C7.18305 32.218 5.9874 34.0051 7.28259 34.5584C8.54802 35.0971 9.22124 35.1041 11.0326 35.0228C11.0436 34.095 11.0081 33.3024 11.015 32.7188C11.0048 32.315 11.171 32.1783 11.452 32.4593C12.3392 33.3466 14.2246 35.232 15.1119 36.1192C15.3781 36.3854 15.368 36.6025 15.0576 36.9129Z" fill="#BBBCC5"/>
</svg>
