<svg width="16" height="16" viewBox="0 0 16 16" fill="none" xmlns="http://www.w3.org/2000/svg">
<path d="M8.7998 4H14.4004C15.2842 4.0002 16 4.67137 16 5.5V10.5254L12.3574 7.35938L12.3477 7.35156C12.0866 7.13022 11.7612 7.01223 11.4336 7.00098C11.4193 7.00049 11.405 6.99987 11.3906 7C10.768 7.00589 10.1521 7.4307 10.0225 8.12402L10.0107 8.20996L10.0049 8.26855L10 8.36621V9.38672H7C6.73478 9.38672 6.48051 9.49215 6.29297 9.67969C6.10544 9.86722 6 10.1215 6 10.3867V14H1.59961C0.715789 13.9998 0 13.3286 0 12.5V3.5C0 2.67512 0.719787 2.0002 1.59961 2H7.2002L8.7998 4Z" fill="#70717A"/>
<path d="M7 13.6188L11 13.6188L11 15.6389C10.9993 15.7362 11.042 15.8295 11.1182 15.8971C11.1931 15.9654 11.2952 16.0025 11.4008 15.9998C11.4865 16.0027 11.5703 15.9795 11.6395 15.9347L11.6885 15.8971L15.8868 12.2694C15.9626 12.1996 16.0036 12.104 15.9998 12.0055C16.0016 11.9296 15.9758 11.8559 15.9273 11.7956L15.8868 11.7531L11.7011 8.1142C11.6187 8.04436 11.5118 8.00385 11.3997 8C11.2019 8.00187 11.0382 8.13402 11.0058 8.30739L11 8.36658L11 10.3867L7 10.3867L7 13.6188Z" fill="#70717A"/>
</svg>
