<svg width="106" height="88" viewBox="0 0 106 88" fill="none" xmlns="http://www.w3.org/2000/svg">
<path d="M40.0045 48.0185C40.9135 41.7759 44.5098 36.506 49.5642 33.0036C54.5118 29.5586 60.909 27.7468 67.7041 28.3451C74.4656 28.9404 80.448 31.8389 84.7173 36.0987C89.0819 40.4305 91.6885 46.2466 91.5062 52.5532C91.2957 59.0245 88.1394 64.8016 83.156 68.8455C78.049 72.9454 71.1371 75.2138 63.6356 74.5533C56.134 73.8928 49.6894 70.4685 45.4128 65.5223C41.1959 60.6683 39.0981 54.4621 40.0352 48.0547L40.0045 48.0185Z" fill="white"/>
<path d="M54.1659 48.4908C54.633 45.2828 56.4811 42.5746 59.0785 40.7747C61.621 39.0044 64.9085 38.0733 68.4004 38.3808C71.8751 38.6867 74.9493 40.1763 77.1433 42.3653C79.3862 44.5914 80.7257 47.5802 80.632 50.8211C80.5238 54.1466 78.9019 57.1154 76.3409 59.1935C73.7165 61.3004 70.1646 62.4661 66.3096 62.1267C62.4546 61.7873 59.1428 60.0276 56.9451 57.4858C54.7781 54.9913 53.7001 51.802 54.1816 48.5094L54.1659 48.4908Z" fill="#265787"/>
<path d="M32.8215 53.4883C32.7328 54.7526 32.9245 57.245 33.3682 59.2094C34.2969 63.3827 36.1549 67.3284 38.8903 70.8871C41.703 74.5558 45.3003 77.6231 49.5545 79.9575C54.0259 82.3969 58.9821 83.8819 64.22 84.3431C69.4585 84.7975 74.5994 84.1843 79.4307 82.5365C84.0288 80.9643 88.1069 78.5728 91.5189 75.435C94.8543 72.3764 97.3628 68.8153 98.9995 64.8679C99.828 62.8779 100.421 60.8328 100.768 58.766C101.109 56.7331 101.224 54.6631 101.11 52.5729C100.886 48.5132 99.8068 44.619 97.9464 41.017C96.2536 37.6876 93.9369 34.7158 91.0987 32.1279L91.1061 32.1235L62.5511 6.2293C62.5253 6.20639 62.5047 6.18222 62.477 6.16086C60.6057 4.46265 57.217 4.16945 54.8873 5.50121C52.5216 6.84698 52.0376 9.37615 53.8844 11.1547L53.875 11.1625L65.7472 22.5397L26.8482 19.156L26.7964 19.1514C23.5807 18.8717 20.3034 20.6771 19.4656 23.2679C18.6005 25.8907 20.5888 28.3178 23.9425 28.6131L23.9362 28.6246L43.6465 30.3222L6.03827 53.8291C5.99047 53.8575 5.93906 53.8873 5.89471 53.9161C2.35485 56.1315 0.915064 60.2166 2.77546 63.0278C4.66593 65.8933 9.17629 66.3076 12.7659 63.9229L33.3211 50.0889C33.3211 50.0889 32.8563 52.1624 32.7692 53.4097L32.8215 53.4883ZM81.6445 64.8526C77.3359 68.4787 71.587 70.259 65.6058 69.7323C59.6063 69.2144 54.2534 66.498 50.6447 62.1747C48.8798 60.0595 47.6575 57.717 46.9847 55.2682C46.3313 52.8555 46.2155 50.3526 46.656 47.8815C47.08 45.4605 48.0222 43.1883 49.3876 41.194C50.7241 39.2315 52.4832 37.4954 54.5763 36.0809C58.7031 33.3327 63.744 32.0746 68.8609 32.5251C73.9957 32.9703 78.7417 35.0609 82.3246 38.4897C84.1393 40.2379 85.565 42.2476 86.5415 44.4137C87.5375 46.6159 88.0714 49.0009 88.0625 51.4757C88.061 53.9855 87.5096 56.4296 86.4447 58.691C85.3562 61.002 83.74 63.0945 81.6326 64.8687L81.6445 64.8526Z" fill="#EA7600"/>
</svg>
