<svg width="16" height="16" viewBox="0 0 16 16" fill="none" xmlns="http://www.w3.org/2000/svg">
<path d="M12.3479 13C11.9872 13 11.6957 13.298 11.6957 13.6667V14.6667H3.8116L8.4262 6.90867C8.5762 6.656 8.5462 6.33467 8.35251 6.11533L4.12137 1.33333H11.6957V2C11.6957 2.36867 11.9872 2.66667 12.3479 2.66667C12.7072 2.66667 13 2.36867 13 2V0.666667C13 0.298667 12.7072 0 12.3479 0H2.65273C2.39448 0 2.16166 0.154667 2.05602 0.395333C1.95167 0.636 1.99537 0.917333 2.16819 1.114L7.0593 6.64L2.0958 14.9867C1.97319 15.194 1.96928 15.45 2.08471 15.66C2.19949 15.8715 2.41665 16 2.65273 16H12.3479C12.7085 16 13 15.7035 13 15.3333V13.6667C13 13.298 12.7072 13 12.3479 13Z" fill="#70717A"/>
</svg>
