<svg width="16" height="16" viewBox="0 0 16 16" fill="none" xmlns="http://www.w3.org/2000/svg">
<path fill-rule="evenodd" clip-rule="evenodd" d="M14 2H2C0.89543 2 0 2.89543 0 4V12C0 13.1046 0.895431 14 2 14H7.41604C7.27732 13.6825 7.17062 13.3478 7.10002 13H2C1.44772 13 1 12.5523 1 12V4C1 3.44772 1.44772 3 2 3H14C14.5523 3 15 3.44772 15 4V7.99963C15.3786 8.28403 15.7156 8.62092 16 8.99951V4C16 2.89543 15.1046 2 14 2ZM10.5988 7.19901C10.4318 7.07403 10.2246 7 10 7H6C5.44772 7 5 7.44772 5 8C5 8.55228 5.44772 9 6 9H7.99963C8.64059 8.14668 9.54821 7.50511 10.5988 7.19901ZM7.41604 10H5C4.44772 10 4 10.4477 4 11C4 11.5523 4.44772 12 5 12H7C7 11.2889 7.14845 10.6125 7.41604 10ZM4 4C3.44772 4 3 4.44772 3 5C3 5.55228 3.44772 6 4 6H12C12.5523 6 13 5.55228 13 5C13 4.44772 12.5523 4 12 4H4Z" fill="#70717A"/>
<path fill-rule="evenodd" clip-rule="evenodd" d="M8 12C8 9.79086 9.79086 8 12 8C14.2091 8 16 9.79086 16 12C16 14.2091 14.2091 16 12 16C9.79086 16 8 14.2091 8 12ZM10.8412 9C10.3064 9 9.96917 9.57542 10.2305 10.042L11.1445 11.6742L10.1555 14.0289C9.96178 14.4903 10.3006 15 10.8009 15H13.5C13.7761 15 14 14.7761 14 14.5C14 14.2239 13.7761 14 13.5 14H11.2523L12.1232 11.9265C12.2067 11.7277 12.1939 11.5015 12.0886 11.3134L11.3531 10H13.5C13.7761 10 14 9.77614 14 9.5C14 9.22386 13.7761 9 13.5 9H10.8412Z" fill="#70717A"/>
</svg>
