<svg width="16" height="16" viewBox="0 0 16 16" fill="none" xmlns="http://www.w3.org/2000/svg">
<path d="M13.3525 4.25446C13.9972 4.25446 14.5833 4.53883 15 5V3.87656C15 2.90918 14.2609 2.1221 13.3525 2.1221H6.15366V1.75451C6.15366 0.787129 5.41458 0 4.50943 0H1.65073C0.739081 0 0 0.787129 0 1.75451V5C0.416747 4.53883 1.00281 4.25446 1.65073 4.25446H13.3525Z" fill="#70717A"/>
<path fill-rule="evenodd" clip-rule="evenodd" d="M7.41604 14C7.14845 13.3875 7 12.7111 7 12C7 9.23858 9.23858 7 12 7C13.1256 7 14.1643 7.37194 15 7.99963V6.82823C15 5.82018 14.2609 5 13.3525 5H1.65073C0.739081 5 0 5.82018 0 6.82823V12.1719C0 13.1799 0.739081 14 1.65073 14H7.41604Z" fill="#70717A"/>
<path fill-rule="evenodd" clip-rule="evenodd" d="M8 12C8 9.79086 9.79086 8 12 8C14.2091 8 16 9.79086 16 12C16 14.2091 14.2091 16 12 16C9.79086 16 8 14.2091 8 12ZM10.8412 9C10.3064 9 9.96917 9.57542 10.2305 10.042L11.1445 11.6742L10.1555 14.0289C9.96178 14.4903 10.3006 15 10.8009 15H13.5C13.7761 15 14 14.7761 14 14.5C14 14.2239 13.7761 14 13.5 14H11.2523L12.1232 11.9265C12.2067 11.7277 12.1939 11.5015 12.0886 11.3134L11.3531 10H13.5C13.7761 10 14 9.77614 14 9.5C14 9.22386 13.7761 9 13.5 9H10.8412Z" fill="#70717A"/>
</svg>
