<svg width="16" height="16" viewBox="0 0 16 16" fill="none" xmlns="http://www.w3.org/2000/svg">
<path d="M6.90625 1.5H13.0938H14.5V2.90625V9.09375V10.5H13V12H14.5C15.3284 12 16 11.3267 16 10.5V9.09375V2.90625V1.5C16 0.671573 15.3267 0 14.5 0H13.0938H6.90625H5.5C4.67157 0 4 0.673259 4 1.5V3H5.5V1.5H6.90625V1.5V1.5Z" fill="#70717A"/>
<path fill-rule="evenodd" clip-rule="evenodd" d="M1 4C0.447715 4 0 4.44772 0 5V15C0 15.5523 0.447715 16 1 16H11C11.5523 16 12 15.5523 12 15V5C12 4.44772 11.5523 4 11 4H1ZM6.96005 6.0392L9.9923 12.8851C10.0027 12.909 10.0026 12.9382 9.9917 12.9618C9.98079 12.9853 9.96091 13 9.93933 13H2.06053C2.03896 13 2.01896 12.9853 2.00817 12.9616C1.99738 12.938 1.99726 12.9086 2.00792 12.8848L4.21253 7.95219C4.2232 7.92845 4.24284 7.91349 4.26441 7.91318C4.28623 7.9141 4.30599 7.92706 4.31714 7.9505L5.10611 9.61351L6.85569 6.03642C6.86708 6.01314 6.8866 5.99926 6.90854 6.00003C6.92999 6.00065 6.94951 6.01545 6.96005 6.0392Z" fill="#70717A"/>
</svg>
