<svg width="60" height="60" viewBox="0 0 60 60" fill="none" xmlns="http://www.w3.org/2000/svg">
<g clip-path="url(#clip0_7079_560)">
<path d="M11.0684 0V0.0290402C10.0353 0.590508 9.04798 1.2391 8.03655 1.84171C6.06667 3.02515 4.10642 4.22069 2.13894 5.40654C1.94147 5.47673 2.01372 5.70664 1.99927 5.86395C1.99927 19.7958 1.99927 33.7276 1.99927 47.6594C3.6585 46.6913 5.29365 45.6676 6.94324 44.6802C6.94324 48.7944 6.94324 52.9086 6.94324 57.0398C6.96809 57.7388 7.2304 58.4083 7.68651 58.9366C8.14262 59.465 8.76502 59.8205 9.45015 59.9439C10.1726 60.048 10.9215 59.9705 11.656 59.9947C27.1823 59.9947 42.7086 59.9947 58.2348 59.9947C58.2348 43.1249 58.2348 26.2559 58.2348 9.38764C56.8558 9.38764 55.4775 9.38764 54.1 9.38764C54.1 7.23616 54.1 5.08467 54.1 2.93561C54.0687 1.45449 52.8068 0.0968059 51.3258 0.0314627C37.9075 -0.0145195 24.4868 0.0290414 11.0684 0Z" fill="white"/>
<path d="M20.6026 9.42432C23.0349 9.42432 25.4695 9.42432 27.9018 9.42432C29.4655 15.6714 31.0244 21.921 32.5784 28.173C33.1155 26.3022 33.5754 24.4073 34.0835 22.5268C35.2298 18.1609 36.3777 13.7942 37.5272 9.42674H44.5711C44.5711 17.2171 44.5711 25.005 44.5711 32.7954C42.7361 32.8099 40.9011 32.7954 39.066 32.7954C39.058 27.889 39.058 22.9826 39.066 18.0762C39.066 18.0157 39.042 17.8947 39.0347 17.8342C37.7367 22.8245 36.4773 27.8172 35.1793 32.8075C33.3587 32.8075 31.5381 32.8075 29.7175 32.8075C28.6435 28.7385 27.5743 24.6678 26.5098 20.5956C26.1944 19.4751 25.9487 18.3328 25.5947 17.2244C25.5658 22.4179 25.5947 27.6139 25.5779 32.8075C23.9211 32.8075 22.2642 32.8075 20.6074 32.8075C20.6138 25.0115 20.6122 17.2171 20.6026 9.42432Z" fill="white"/>
<path d="M21.3853 55.1765C22.2353 52.2264 23.071 49.2714 23.9066 46.3213C24.8843 46.3213 25.862 46.3213 26.8398 46.3213C27.7292 49.2754 28.6162 52.2296 29.5008 55.1838C28.751 55.1838 28.0021 55.1838 27.254 55.1838C27.0709 54.5376 26.8976 53.889 26.7073 53.2477C25.8307 53.2477 24.9566 53.2477 24.0824 53.2477C23.897 53.889 23.7501 54.5424 23.5815 55.1838C22.8494 55.1854 22.1173 55.1829 21.3853 55.1765ZM25.3756 47.7855C25.0577 49.0512 24.7784 50.3266 24.4725 51.5947C25.0722 51.5947 25.6766 51.5947 26.2738 51.5947C26.0017 50.3242 25.6598 49.0633 25.3756 47.7879V47.7855Z" fill="white"/>
<path d="M28.6771 46.3188C29.4501 46.3188 30.2207 46.3188 30.9937 46.3188C31.5332 47.5604 32.0654 48.8043 32.6048 50.0458C33.149 48.8091 33.6668 47.5604 34.2062 46.3213C34.9504 46.3213 35.6945 46.3213 36.4386 46.3213C35.5452 48.0275 34.6638 49.7433 33.7679 51.4495C33.7023 51.5484 33.6671 51.6646 33.6668 51.7835C33.6668 52.9161 33.6668 54.0487 33.6668 55.1716C32.9443 55.1716 32.2002 55.1716 31.4657 55.1716C31.4657 54.039 31.4657 52.9064 31.4657 51.7835C31.4428 51.615 31.381 51.4542 31.2851 51.314C30.4101 49.6505 29.5408 47.9855 28.6771 46.3188Z" fill="white"/>
<path d="M35.6729 55.1643C36.523 52.2141 37.3586 49.2592 38.1991 46.3066C39.1792 46.3066 40.1569 46.3066 41.137 46.3066C42.0088 49.264 42.9119 52.2117 43.786 55.1691C43.0371 55.1691 42.2906 55.1691 41.5416 55.1691C41.3682 54.5205 41.1852 53.8744 40.9998 53.233C40.1184 53.233 39.237 53.233 38.3508 53.233C38.2039 53.8792 38.0233 54.5181 37.8692 55.1691C37.1371 55.1836 36.405 55.186 35.6729 55.1643ZM38.7554 51.5825C39.3598 51.5825 39.9595 51.5825 40.5663 51.5825C40.2822 50.3144 39.9522 49.0535 39.6657 47.7829C39.3333 49.0583 39.0757 50.324 38.7554 51.5946V51.5825Z" fill="white"/>
<path d="M11.0686 0C24.4869 0.0314615 37.9076 -5.90525e-07 51.3259 0.0145201C52.8094 0.0798633 54.0688 1.43513 54.1002 2.91866C54.1002 5.07015 54.1002 7.22163 54.1002 9.3707C54.1002 20.2983 54.1002 31.2268 54.1002 42.156C39.7619 42.1754 25.4245 42.1754 11.0878 42.156C11.0565 28.1194 11.0878 14.0657 11.0662 0.0193651L11.0686 0ZM20.6025 9.43846C20.6025 17.228 20.6025 25.0184 20.6025 32.8095C22.2593 32.8217 23.9162 32.8095 25.573 32.8095C25.5971 27.616 25.573 22.42 25.5898 17.2264C25.9414 18.3348 26.1895 19.4771 26.5049 20.5976C27.5726 24.6699 28.6418 28.7405 29.7126 32.8095C31.5332 32.8095 33.3538 32.8095 35.1743 32.8095C36.482 27.8241 37.7415 22.8266 39.0539 17.8435C39.0539 17.904 39.078 18.025 39.0852 18.0855C39.0852 22.9919 39.0852 27.8983 39.0852 32.8047C40.9202 32.8047 42.7553 32.8047 44.5903 32.8047C44.5903 25.0143 44.5903 17.2264 44.5903 9.43604H37.5295C36.3784 13.8019 35.2305 18.1686 34.0859 22.5361C33.5777 24.4166 33.1226 26.3115 32.5808 28.1823C31.0331 21.9303 29.4742 15.6808 27.9041 9.43362C25.4694 9.42394 23.0372 9.42394 20.6025 9.42394V9.43846Z" fill="#39A5CC"/>
<path d="M8.03915 1.84197C9.05058 1.24178 10.0379 0.590764 11.071 0.0292969C11.1023 14.066 11.071 28.1196 11.0927 42.166L6.94824 44.6829C5.29624 45.6703 3.6635 46.6892 2.00427 47.6621C2.00427 33.7303 2.00427 19.7984 2.00427 5.86662C2.01872 5.70931 1.94648 5.47699 2.14395 5.40922C4.11383 4.21853 6.06926 3.02299 8.03915 1.84197Z" fill="#7FC5DE"/>
<path d="M54.1075 9.37085C55.4865 9.37085 56.8648 9.37085 58.2423 9.37085C58.2423 26.2407 58.2423 43.1097 58.2423 59.978C42.716 59.9957 27.1897 59.9957 11.6635 59.978C10.929 59.9538 10.1873 60.0312 9.45759 59.9271C8.77246 59.8037 8.15006 59.4482 7.69395 58.9198C7.23784 58.3915 6.97553 57.722 6.95068 57.023C6.95068 52.9088 6.95068 48.7946 6.95068 44.6634L11.0976 42.1635C25.4358 42.1635 39.7732 42.1635 54.1099 42.1635C54.1163 31.2294 54.1155 20.2985 54.1075 9.37085ZM21.3853 55.1764C22.1173 55.1764 22.8502 55.1764 23.5839 55.1764C23.7525 54.5278 23.8994 53.8768 24.0848 53.2403C24.959 53.2403 25.8331 53.2403 26.7097 53.2403C26.8975 53.8841 27.0734 54.5351 27.2564 55.1764C28.0045 55.1764 28.7534 55.1764 29.5032 55.1764C28.6122 52.2239 27.7252 49.2697 26.8422 46.314C25.8644 46.314 24.8867 46.314 23.909 46.314C23.0662 49.2738 22.2329 52.2263 21.3853 55.1764ZM28.6772 46.3188C29.5441 47.9855 30.4127 49.6505 31.2828 51.3139C31.3787 51.4541 31.4405 51.6149 31.4634 51.7834C31.4634 52.9161 31.4634 54.0487 31.4634 55.1716C32.1859 55.1716 32.93 55.1716 33.6645 55.1716C33.6645 54.039 33.6645 52.9064 33.6645 51.7834C33.6648 51.6645 33.7 51.5484 33.7657 51.4495C34.6615 49.7433 35.5429 48.0274 36.4363 46.3212C35.6922 46.3212 34.9481 46.3212 34.2039 46.3212C33.6645 47.5603 33.1468 48.8091 32.6025 50.0458C32.0655 48.8043 31.5333 47.5603 30.9914 46.3188C30.2208 46.314 29.4478 46.3188 28.6772 46.3188ZM35.6729 55.1643C36.3954 55.1643 37.1371 55.1643 37.8692 55.1643C38.0233 54.5182 38.2039 53.8817 38.3508 53.2282C39.2322 53.2089 40.1136 53.2282 40.9998 53.2282C41.1852 53.8744 41.3682 54.5182 41.5416 55.1643C42.2906 55.1643 43.0371 55.1643 43.786 55.1643C42.9143 52.207 42.0088 49.2592 41.1371 46.3019C40.1569 46.3019 39.1792 46.3019 38.1991 46.3019C37.3466 49.2689 36.523 52.2263 35.6729 55.1643Z" fill="#36687F"/>
<path d="M25.3756 47.7878C25.6598 49.0632 26.0017 50.3241 26.2738 51.602C25.6742 51.602 25.0698 51.602 24.4725 51.602C24.7784 50.3241 25.0649 49.0511 25.3756 47.7878Z" fill="#36687F"/>
<path d="M38.7554 51.5943C39.0757 50.3334 39.3333 49.058 39.6657 47.802C39.9522 49.0701 40.2822 50.331 40.5663 51.6016C39.9643 51.5895 39.3598 51.5992 38.7554 51.5943Z" fill="#36687F"/>
</g>
<defs>
<clipPath id="clip0_7079_560">
<rect width="60" height="59.9714" fill="white"/>
</clipPath>
</defs>
</svg>
