<svg width="60" height="60" viewBox="0 0 60 60" fill="none" xmlns="http://www.w3.org/2000/svg">
<g clip-path="url(#clip0_7079_560)">
<path d="M0.000862575 8.87946C3.24924 6.92257 6.49077 4.95028 9.75283 3.01562C9.75967 17.9951 9.73573 32.9746 9.76481 47.9541C8.28687 48.8726 6.78328 49.7484 5.30192 50.6568C3.53319 51.7122 1.77815 52.7916 0.00599428 53.8384C-0.00597972 38.8521 0.00428372 23.8658 0.000862575 8.87946Z" fill="#7DC6DD"/>
<path d="M9.75283 3.01557C23.9626 2.99162 38.174 3.01215 52.3854 3.00531C54.1405 2.89925 55.7877 4.39771 55.7946 6.16473C55.8271 8.4894 55.798 10.8158 55.8083 13.1422C55.8048 24.7433 55.8151 36.3426 55.8031 47.9437C40.4576 47.9608 25.1103 47.9403 9.76481 47.954C9.73573 32.9745 9.75967 17.995 9.75283 3.01557ZM19.8914 13.0515C19.8794 21.3632 19.8897 29.6748 19.8863 37.9865C21.6824 37.9865 23.4785 37.9865 25.2746 37.9865C25.2763 32.4819 25.2746 26.9773 25.2746 21.4726C26.7901 26.9602 28.174 32.487 29.6468 37.9865C31.5985 37.9899 33.552 37.9797 35.5038 37.9916C36.9099 32.7265 38.2595 27.4442 39.6793 22.1808C39.6964 27.4494 39.6793 32.7179 39.6861 37.9848C41.667 37.9882 43.6478 37.9865 45.6287 37.9865C45.6389 29.6817 45.615 21.3768 45.6406 13.072C43.0953 13.0327 40.5483 13.0652 38.0029 13.0549C36.2718 19.68 34.5219 26.2999 32.7634 32.9164C31.0683 26.3033 29.4398 19.6731 27.7652 13.0549C25.1394 13.0515 22.5154 13.0583 19.8914 13.0515Z" fill="#37A5CC"/>
<path d="M19.8914 13.0518C22.5154 13.0586 25.1394 13.0518 27.7651 13.0552C29.4398 19.6734 31.0682 26.3036 32.7634 32.9166C34.5219 26.3001 36.2718 19.6802 38.0029 13.0552C40.5482 13.0654 43.0953 13.0329 45.6406 13.0723C45.615 21.3771 45.6389 29.6819 45.6286 37.9868C43.6478 37.9868 41.667 37.9885 39.6861 37.9851C39.6793 32.7182 39.6964 27.4496 39.6793 22.1811C38.2595 27.4445 36.9099 32.7268 35.5038 37.9919C33.552 37.9799 31.5985 37.9902 29.6468 37.9868C28.174 32.4873 26.7901 26.9604 25.2745 21.4729C25.2745 26.9775 25.2763 32.4821 25.2745 37.9868C23.4784 37.9868 21.6823 37.9868 19.8862 37.9868C19.8897 29.6751 19.8794 21.3634 19.8914 13.0518Z" fill="white"/>
<path d="M55.8083 13.1419C57.2759 13.1402 58.7436 13.1402 60.213 13.1419C60.2044 28.094 60.2318 43.0478 60.1993 57.9999H8.6649C8.05252 57.9144 7.41789 57.8203 6.88248 57.4885C5.92628 56.9325 5.29507 55.8532 5.30363 54.743C5.29679 53.3814 5.31047 52.0181 5.30192 50.6565C6.78327 49.7481 8.28686 48.8723 9.7648 47.9537C25.1103 47.9401 40.4576 47.9606 55.8031 47.9435C55.8151 36.3424 55.8048 24.743 55.8083 13.1419Z" fill="#36697F"/>
</g>
<defs>
<clipPath id="clip0_7079_560">
<rect width="60" height="59.9714" fill="white"/>
</clipPath>
</defs>
</svg>
