<svg width="48" height="48" viewBox="0 0 48 48" fill="none" xmlns="http://www.w3.org/2000/svg">
<path fill-rule="evenodd" clip-rule="evenodd" d="M29.1923 22.2353H15.3462V14.1303C17.6584 13.612 19.3846 11.5695 19.3846 9.12868C19.3846 6.29619 17.0599 4 14.1923 4C11.3247 4 9 6.29619 9 9.12868C9 11.5695 10.7262 13.612 13.0385 14.1303V33.8697C10.7262 34.388 9 36.4305 9 38.8713C9 41.7038 11.3247 44 14.1923 44C17.0599 44 19.3846 41.7038 19.3846 38.8713C19.3846 36.4305 17.6584 34.388 15.3462 33.8697V24.5147H29.1923C32.3786 24.5147 34.9615 21.9634 34.9615 18.8162V14.1303C37.2738 13.612 39 11.5695 39 9.12868C39 6.29619 36.6753 4 33.8077 4C30.9401 4 28.6154 6.29619 28.6154 9.12868C28.6154 11.5695 30.3416 13.612 32.6538 14.1303V18.8162C32.6538 20.7045 31.1041 22.2353 29.1923 22.2353ZM16.5 9C16.5 10.3807 15.3807 11.5 14 11.5C12.6193 11.5 11.5 10.3807 11.5 9C11.5 7.61929 12.6193 6.5 14 6.5C15.3807 6.5 16.5 7.61929 16.5 9ZM14 41.5C15.3807 41.5 16.5 40.3807 16.5 39C16.5 37.6193 15.3807 36.5 14 36.5C12.6193 36.5 11.5 37.6193 11.5 39C11.5 40.3807 12.6193 41.5 14 41.5ZM36.5 9C36.5 10.3807 35.3807 11.5 34 11.5C32.6193 11.5 31.5 10.3807 31.5 9C31.5 7.61929 32.6193 6.5 34 6.5C35.3807 6.5 36.5 7.61929 36.5 9Z" fill="#BDBDBD"/>
</svg>
