<svg xmlns="http://www.w3.org/2000/svg" xmlns:xlink="http://www.w3.org/1999/xlink" version="1.1" x="0px" y="0px" viewBox="0 0 100 100" enable-background="new 0 0 100 100" xml:space="preserve"><desc>Created with Sketch.</desc><g><path fill-rule="evenodd" clip-rule="evenodd" d="M68.5,51.812c2,2,2,5,0,7c-1,1-2.5,1.5-3.5,1.5s-2.5-0.5-3.5-1.5   l-6.5-6.5v33c0,3-2,5-5,5c-3,0-5-2-5-5v-33l-6.5,6.5c-2,2-5,2-7,0c-2-2-2-5,0-7l15-15c0.5-0.5,1-0.5,1.5-1c1.5-0.5,3-0.5,4,0   c0.5,0,1,0.5,1.5,1L68.5,51.812z M21.763,21.312c16-15.5,41-15.5,56.5,0c13.5,13.5,15.5,35,4.5,51c-1.5,2-3,4-4.5,5.5c-2,2-5,2-7,0   s-2-5,0-7c1.5-1,2.5-2.5,3.5-4c8-12,7-28-3.5-38.5c-12-11.5-31-11.5-42.5,0c-11.5,12-11.5,31,0,42.5c2,2,2,5,0,7   c-1,1-2.5,1.5-3.5,1.5c-1,0-2.5-0.5-3.5-1.5C6.263,62.312,6.263,36.812,21.763,21.312z"></path></g></svg>