<svg width="48" height="48" viewBox="0 0 48 48" fill="none" xmlns="http://www.w3.org/2000/svg">
<path d="M28.748 27.8238L25.9261 22.755L24.8511 24.5653L22.3011 23.3387V15.3075L15.179 11.259V6.71678H17.2955L14.2384 1.8125L11.1813 6.7497H13.2978V11.2919L6.17573 15.3075V23.3716L3.89696 25.1308L2.82194 23.3205L0 28.3893L5.87903 28.521L4.80401 26.7107L7.11637 24.9515L14.2384 28.9671L21.3604 24.9515L23.9104 26.1781L22.869 27.9555L28.748 27.8238ZM8.05702 17.414L13.2978 20.3764V26.301L8.05702 23.3387V17.414ZM14.2384 18.7965L8.99766 15.8341L14.2384 12.8718L19.4791 15.8341L14.2384 18.7965ZM15.179 26.301V20.3764L20.4198 17.414V23.3387L15.179 26.301Z" fill="#BBBCC5"/>
<path d="M47.9619 21.6944C47.8856 21.1584 47.6997 20.6501 47.4092 20.1838C47.1558 19.7768 46.8307 19.4149 46.4427 19.1073L46.4437 19.1063L42.3683 15.9805C42.3654 15.9779 42.3623 15.9755 42.3592 15.9732C42.2237 15.8695 42.0402 15.8125 41.8428 15.8125C41.6451 15.8125 41.4545 15.8697 41.3063 15.9735C41.147 16.0847 41.0559 16.2321 41.0496 16.3891C41.0437 16.5356 41.1137 16.6765 41.2471 16.7864C41.5094 16.993 41.7711 17.2042 42.0331 17.4156C42.2874 17.6209 42.5495 17.8323 42.8103 18.0381L37.8186 18.0347C37.2477 18.0347 36.859 18.3024 36.7791 18.7506C36.7439 18.9469 36.8059 19.1627 36.9445 19.328C37.0916 19.5033 37.3051 19.5999 37.5457 19.5999L37.9262 19.6002C38.4519 19.6002 38.9799 19.5989 39.5072 19.5976L40.0101 19.5965L35.4797 22.9435L35.4617 22.9567C35.2086 23.1504 35.043 23.4219 35.0072 23.7016C34.9801 23.9136 35.0296 24.1072 35.1504 24.2619C35.2944 24.4463 35.5193 24.5477 35.7835 24.5477C36.0431 24.5477 36.3081 24.4495 36.5298 24.2706L38.9763 22.2712C38.9658 22.3688 38.9531 22.5121 38.9546 22.616C38.9573 22.7806 39.0102 23.1109 39.094 23.379C39.2671 23.9301 39.5587 24.4342 39.9606 24.877C40.3788 25.3376 40.8881 25.7029 41.4743 25.9623C42.094 26.2361 42.7602 26.375 43.4544 26.375H43.4609C44.1573 26.3733 44.8256 26.2322 45.4474 25.9553C46.0345 25.6928 46.5436 25.3261 46.9602 24.8655C47.3616 24.4205 47.6528 23.9155 47.8256 23.3649C47.911 23.0924 47.9658 22.8111 47.9888 22.5265C48.0101 22.2513 48.0009 21.9714 47.9619 21.6944V21.6944ZM43.5052 24.3355C41.9752 24.3355 40.7345 23.2271 40.7345 21.8598C40.7345 20.4927 41.9752 19.3843 43.5052 19.3843C45.0352 19.3843 46.2758 20.4927 46.2758 21.8598C46.2759 23.2271 45.0352 24.3355 43.5052 24.3355ZM45.103 21.6423C45.1256 22.0503 44.9624 22.4293 44.6757 22.7098C44.3842 22.9955 43.9681 23.175 43.5029 23.175C43.0378 23.175 42.6217 22.9955 42.33 22.7098C42.0435 22.4293 41.8806 22.0504 41.903 21.6426C41.925 21.2462 42.1187 20.8963 42.4103 20.6485C42.6971 20.4049 43.0822 20.2563 43.5028 20.2563C43.9235 20.2563 44.3085 20.405 44.5953 20.6485C44.8871 20.8963 45.0808 21.2459 45.103 21.6423V21.6423Z" fill="#BBBCC5"/>
<g clip-path="url(#clip0_7063_549)">
<path d="M19.5119 36.7772C17.7591 37.0946 16.6167 37.7468 15.8708 38.3588C15.7777 38.7191 15.723 39.0933 15.723 39.4812C15.723 42.0779 17.94 44.1828 20.6743 44.1828C21.0822 44.1828 21.469 44.1298 21.8367 44.0398C22.6265 43.0388 23.2727 41.2963 23.4374 39.8538C23.6102 38.3448 23.9536 37.8876 24.381 37.5897C24.5326 37.4841 24.6919 37.4033 24.8603 37.3649C24.3799 36.3373 23.5392 35.5297 22.4532 35.1072C22.4559 35.1191 22.4607 35.1289 22.4635 35.1408C22.6698 36.0232 21.729 36.3758 19.5119 36.7772ZM25.5553 38.2781C25.538 38.244 25.5206 38.2056 25.5027 38.1622C25.181 37.3741 24.4075 37.8849 24.2033 38.3486C23.8014 39.2618 23.8604 39.6605 23.6974 40.5862C23.5343 41.5119 22.9732 43.294 22.1655 44.2088C21.0118 45.5153 19.7497 46.096 17.9801 45.927C16.2105 45.758 14.8465 44.2576 14.3417 43.1699C13.9181 42.2572 13.8542 41.2221 14.3552 39.8804C14.8563 38.5387 16.3594 37.4478 17.7336 36.9234C19.1078 36.3991 20.1955 36.3476 20.962 36.1245C21.7284 35.9008 22.1802 35.5324 22.152 35.2188C22.1168 34.8299 21.742 34.623 21.5302 34.5363C20.891 34.331 20.208 34.22 19.4984 34.22C15.9174 34.22 13.0146 37.0464 13.0146 40.5331C13.0146 44.0198 15.9174 46.8462 19.4984 46.8462C23.0793 46.8462 25.9821 44.0198 25.9821 40.5331C25.9816 39.7385 25.8305 38.9785 25.5553 38.2781Z" fill="#BBBCC5"/>
</g>
<path d="M43.046 32.6923C44.2276 32.6924 45.1827 33.6718 45.1827 34.8827V42.5604C45.1827 43.7713 44.2276 44.7507 43.046 44.7509H35.2511C34.0696 44.7506 33.1144 43.7713 33.1144 42.5604V34.8827C33.1144 33.6718 34.0696 32.6925 35.2511 32.6923H43.046ZM41.7687 37.037C41.4117 37.037 41.1144 37.093 40.8781 37.2167C40.6619 37.3197 40.4764 37.4852 40.3507 37.6913C40.2401 37.8819 40.1789 38.0929 40.1788 38.3143C40.1738 38.4947 40.2146 38.6758 40.295 38.8407C40.3905 39.0157 40.5212 39.1649 40.6769 39.2782C40.898 39.4327 41.1344 39.5566 41.3907 39.6493C41.6371 39.7472 41.8034 39.8245 41.8839 39.8915C41.9643 39.9584 42.005 40.0254 42.005 40.0975C42.005 40.1902 41.9496 40.2782 41.8693 40.3143C41.7787 40.3607 41.6424 40.3866 41.4513 40.3866C41.2503 40.3866 41.0495 40.3599 40.8585 40.3085C40.6373 40.2569 40.4306 40.175 40.2345 40.0565C40.2194 40.0462 40.2046 40.0413 40.1896 40.0516C40.1746 40.0619 40.1691 40.0821 40.1691 40.0975V40.994C40.164 41.0352 40.1895 41.072 40.2247 41.0927C40.3855 41.1699 40.5616 41.2258 40.7374 41.2567C40.9636 41.3031 41.1898 41.3241 41.421 41.3241C41.783 41.3241 42.0848 41.2672 42.3312 41.1591C42.5573 41.0664 42.7539 40.907 42.8947 40.701C43.0253 40.5002 43.0959 40.2576 43.0909 40.0155C43.096 39.83 43.0552 39.6492 42.9747 39.4843C42.8792 39.3092 42.744 39.1647 42.5782 39.0565C42.337 38.902 42.0753 38.7733 41.8038 38.6805C41.6831 38.629 41.5621 38.5725 41.4464 38.5106C41.381 38.4745 41.3208 38.4277 41.2755 38.371C41.2454 38.3298 41.2257 38.2835 41.2257 38.2372C41.2257 38.1909 41.2407 38.1397 41.2657 38.0985C41.3009 38.0471 41.3558 38.0105 41.421 37.995C41.5165 37.9693 41.6223 37.9538 41.7228 37.9589C41.9139 37.9589 42.1002 37.985 42.2863 38.0262C42.4571 38.0623 42.6179 38.1187 42.7687 38.201C42.7888 38.2114 42.8142 38.2114 42.8595 38.201C42.8745 38.1907 42.8849 38.1699 42.8849 38.1493V37.3094C42.8848 37.2889 42.8791 37.2684 42.8741 37.2479C42.8641 37.2274 42.8443 37.2072 42.8243 37.202C42.6886 37.1453 42.5426 37.1035 42.3917 37.0829C42.1857 37.052 41.9747 37.037 41.7687 37.037ZM36.9816 35.7635C36.8258 35.7687 36.6797 35.7692 36.5441 35.7743C36.4083 35.7794 36.2819 35.7789 36.1613 35.7841C36.0458 35.7892 35.9654 35.7899 35.88 35.7899C35.8448 35.7899 35.8292 35.8105 35.8292 35.8466V41.1493C35.8293 41.1953 35.8498 41.2156 35.8898 41.2157H36.8654C36.9006 41.2105 36.926 41.1795 36.921 41.1434V39.4891C37.0163 39.4891 37.0866 39.4899 37.1368 39.495C37.1871 39.5001 37.2681 39.4999 37.3888 39.4999C37.8009 39.4999 38.1779 39.4538 38.5197 39.3251C38.8464 39.2014 39.1281 38.9846 39.3292 38.6962C39.5303 38.4076 39.631 38.0416 39.631 37.5985C39.631 37.3667 39.5911 37.145 39.5157 36.9286C39.4353 36.707 39.3095 36.5056 39.1486 36.3407C38.9575 36.1501 38.726 36.0064 38.4747 35.9188C38.1931 35.8106 37.8509 35.7587 37.4386 35.7587C37.2879 35.7587 37.1373 35.7584 36.9816 35.7635ZM37.4738 36.7743C37.6799 36.7691 37.8814 36.7995 38.0675 36.8768C38.2133 36.9335 38.3336 37.0368 38.4191 37.1708C38.4994 37.3098 38.5402 37.4692 38.5353 37.6288C38.5353 37.8555 38.4846 38.0312 38.379 38.16C38.2684 38.2888 38.1278 38.3871 37.9669 38.4335C37.781 38.4953 37.5848 38.5262 37.3888 38.5262H37.1222C37.0619 38.5262 36.9963 38.5207 36.9259 38.5155V36.7841C36.9611 36.7789 37.0315 36.774 37.132 36.7792C37.2274 36.774 37.3431 36.7743 37.4738 36.7743Z" fill="#BBBCC5"/>
<defs>
<clipPath id="clip0_7063_549">
<rect width="13" height="13" fill="white" transform="translate(13 34)"/>
</clipPath>
</defs>
</svg>
