<svg width="1600" height="1600" viewBox="0 0 1600 1600" fill="none" xmlns="http://www.w3.org/2000/svg">
<path d="M247.92 541.427L244.691 539.875L79.9976 749.528L618.998 939.408L774.064 727.568L247.918 541.421L247.92 541.427ZM704.96 339.16C698.934 332.582 699.403 322.343 705.981 316.311C712.559 310.3 722.784 310.753 728.809 317.331L780.757 374.061L870.689 266.967C876.413 260.129 886.658 259.202 893.496 264.926C900.334 270.671 901.261 280.895 895.516 287.754L792.219 410.535C785.641 416.546 775.402 416.093 769.391 409.514L704.948 339.16L704.96 339.16ZM1031.2 417.624L1037.12 463.583C1038.04 470.952 1033.83 477.833 1027.27 480.552L967.576 505.552L942.592 565.249C939.665 572.353 932.18 576.228 924.884 574.984L861.368 566.838L809.832 606.125C803.879 610.677 795.717 610.453 790.045 606.031L738.644 566.837L674.409 575.077C667.018 576.004 660.158 571.806 657.44 565.249L632.44 505.552L572.742 480.568C565.617 477.64 561.742 470.156 562.992 462.844L568.815 417.62L286.669 520.745L800.002 702.372L1313.34 520.732L1031.19 417.628L1031.2 417.624ZM846.96 138.877L799.996 103.065L753.032 138.877C749.761 141.351 745.569 142.601 741.162 142.054L682.542 134.534L659.772 189.018C658.168 192.835 655.141 196.049 651.022 197.747L596.558 220.539L603.985 278.555C604.704 282.805 603.704 287.341 600.886 291.029L565.074 337.993L600.886 384.935C603.36 388.222 604.625 392.42 604.063 396.805L596.563 455.445L651.027 478.216C654.845 479.804 658.058 482.825 659.777 486.966L682.548 541.43L740.564 533.982C744.814 533.284 749.371 534.263 753.038 537.102L800.002 572.914L846.966 537.102C850.236 534.628 854.429 533.362 858.835 533.909L917.455 541.43L940.226 486.966C941.83 483.148 944.856 479.919 948.976 478.216L1003.44 455.445L996.013 397.429C995.294 393.158 996.294 388.622 999.112 384.94L1034.92 337.997L999.112 291.033C996.638 287.762 995.372 283.549 995.935 279.163L1003.43 220.543L948.971 197.751C945.153 196.163 941.94 193.142 940.221 189.022L917.45 134.538L859.434 141.986C855.184 142.705 850.627 141.705 846.96 138.887V138.877ZM1353.53 808.157C1354.74 807.553 1356.05 807.079 1357.42 806.777L1520 749.517L1355.26 539.81L1351.81 541.493L825.926 727.559L980.992 939.399L1353.53 808.154L1353.53 808.157ZM255.44 845.688V1303.77L783.76 1496.93V769.141L638.44 967.608C634.45 973.676 626.706 976.488 619.544 973.957L255.44 845.688ZM816.227 769.131V1496.92L1344.55 1303.76V845.677L980.44 973.937C973.883 976.245 966.304 974.109 961.997 968.229L816.224 769.122L816.227 769.131Z" fill="#BBBCC5"/>
</svg>
