<svg width="48" height="48" viewBox="0 0 48 48" fill="none" xmlns="http://www.w3.org/2000/svg">
<path d="M44 45H4C2.93908 45 1.92172 44.5898 1.17156 43.8595C0.4214 43.1292 0 42.1388 0 41.1061V6.06061C0 5.02782 0.4214 4.03744 1.17156 3.30717C1.92172 2.5769 2.93908 2.16667 4 2.16667H44C45.0609 2.16667 46.0783 2.5769 46.8284 3.30717C47.5786 4.03744 48 5.02782 48 6.06061V41.1061C48 42.1388 47.5786 43.1292 46.8284 43.8595C46.0783 44.5898 45.0609 45 44 45ZM4 4.11364C3.46952 4.11364 2.9608 4.31883 2.5858 4.68391C2.2108 5.04898 2 5.54424 2 6.06061V41.1061C2 41.6225 2.21078 42.1177 2.5858 42.4828C2.96082 42.8478 3.46956 43.053 4 43.053H44C44.5305 43.053 45.0392 42.8478 45.4142 42.4828C45.7892 42.1177 46 41.6224 46 41.1061V6.06061C46 5.5442 45.7892 5.04897 45.4142 4.68391C45.0392 4.31885 44.5304 4.11364 44 4.11364H4Z" fill="#BDBDBD"/>
<path d="M6.99996 8.00758H5.99996C5.64277 8.00758 5.3126 7.82201 5.13388 7.52084C4.95529 7.21966 4.95529 6.84851 5.13388 6.54735C5.31263 6.24618 5.6428 6.06061 5.99996 6.06061H6.99996C7.35715 6.06061 7.68732 6.24618 7.86604 6.54735C8.04463 6.84852 8.04463 7.21968 7.86604 7.52084C7.68729 7.82201 7.35712 8.00758 6.99996 8.00758Z" fill="#BDBDBD"/>
<path d="M12 8.00758H11C10.6428 8.00758 10.3127 7.82201 10.1339 7.52084C9.95535 7.21966 9.95535 6.84851 10.1339 6.54735C10.3127 6.24618 10.6429 6.06061 11 6.06061H12C12.3572 6.06061 12.6874 6.24618 12.8661 6.54735C13.0447 6.84852 13.0447 7.21968 12.8661 7.52084C12.6873 7.82201 12.3572 8.00758 12 8.00758Z" fill="#BDBDBD"/>
<path d="M42 8.00758H41C40.6428 8.00758 40.3127 7.82201 40.1339 7.52084C39.9554 7.21966 39.9554 6.84851 40.1339 6.54735C40.3127 6.24618 40.6429 6.06061 41 6.06061H42C42.3572 6.06061 42.6874 6.24618 42.8661 6.54735C43.0447 6.84852 43.0447 7.21968 42.8661 7.52084C42.6873 7.82201 42.3572 8.00758 42 8.00758Z" fill="#BDBDBD"/>
<path d="M43.0001 11.9015H5.00003C4.64284 11.9015 4.31266 11.7159 4.13394 11.4148C3.95535 11.1136 3.95535 10.7424 4.13394 10.4413C4.3127 10.1401 4.64286 9.95454 5.00003 9.95454H43.0001C43.3573 9.95454 43.6874 10.1401 43.8661 10.4413C44.0447 10.7425 44.0447 11.1136 43.8661 11.4148C43.6874 11.7159 43.3572 11.9015 43.0001 11.9015Z" fill="#BDBDBD"/>
<path d="M6.99998 23.5833C6.73482 23.5833 6.48046 23.4807 6.29294 23.2981C6.10559 23.1156 6.00012 22.868 6.00012 22.6098C6.00012 22.3517 6.10543 22.1041 6.29294 21.9215L8.5859 19.6894L6.29294 17.4572C6.04762 17.2099 5.9545 16.855 6.04778 16.5235C6.14121 16.192 6.40731 15.933 6.74778 15.842C7.0884 15.7512 7.45294 15.8419 7.70698 16.0807L10.707 19.0011C10.8945 19.1837 10.9998 19.4313 10.9998 19.6894C10.9998 19.9476 10.8945 20.1952 10.707 20.3777L7.70698 23.2982C7.51948 23.4807 7.2651 23.5834 6.99994 23.5834L6.99998 23.5833Z" fill="#BDBDBD"/>
<path d="M17 23.5833H13C12.6428 23.5833 12.3127 23.3978 12.1339 23.0966C11.9554 22.7954 11.9554 22.4243 12.1339 22.1231C12.3127 21.8219 12.6429 21.6364 13 21.6364H17C17.3572 21.6364 17.6874 21.8219 17.8661 22.1231C18.0447 22.4243 18.0447 22.7954 17.8661 23.0966C17.6874 23.3978 17.3572 23.5833 17 23.5833Z" fill="#BDBDBD"/>
</svg>
