<svg width="17" height="17" viewBox="0 0 17 17" fill="none" xmlns="http://www.w3.org/2000/svg">
<path d="M7 0C10.8597 0 14 3.14032 14 7C14 7.16682 13.992 7.33215 13.9805 7.49609C13.6008 7.48952 13.2311 7.48483 12.9014 7.48047C12.914 7.32194 12.9229 7.16185 12.9229 7C12.9229 3.72296 10.277 1.07715 7 1.07715C3.72296 1.07715 1.07715 3.72296 1.07715 7C1.07715 10.277 3.72296 12.9229 7 12.9229C7.33149 12.9229 7.65617 12.8939 7.97266 12.8418C7.976 13.1299 8.00239 13.5046 8 13.5996C8.00079 13.7255 7.96697 13.8413 7.9502 13.9326C7.63928 13.975 7.32236 14 7 14C3.14032 14 0 10.8597 0 7C1.9399e-07 3.14032 3.14032 1.93983e-07 7 0ZM7 2.69238C6.99301 2.69688 5.92285 3.38612 5.92285 3.9375C5.92285 5.04387 6.46191 4.8457 6.46191 4.8457C6.46191 4.8457 6.44434 8.43074 6.44434 8.7168C6.44453 9.00256 6.6258 9.1543 7 9.1543C7.3744 9.1543 8.07715 8.68262 8.07715 8.68262V5.38477C8.07715 4.99354 7.75263 4.49271 7.53809 4.30762C8.10135 4.30762 8.25506 4.61311 8.26172 4.62695C8.27105 4.61244 8.84214 3.73526 10.7695 3.23047C10.4751 3.60686 9.69285 4.64152 9.69238 4.98047V8.88477C9.69258 9.08013 10.0872 9.15419 10.2305 9.1543C10.2517 9.1543 10.2857 9.1463 10.3311 9.13379L9.22266 10.7344C9.19959 10.7454 9.17763 10.7588 9.1543 10.7695L8.07715 10.2305L7 11.3076C6.99579 11.3073 4.74255 11.1401 3.76953 9.69238C4.03271 9.73235 4.82881 9.7994 4.8291 9.38965V6.0918C4.8291 5.82467 4.70696 5.7041 4.47559 5.7041C4.24369 5.70427 3.40722 5.86563 2.1543 8.07715C2.1543 5.50684 4.43811 3.14461 7 2.69238Z" fill="#70717A"/>
<path d="M14.1389 16.4669V12.9113H15.9065C15.9916 12.9119 16.0732 12.8739 16.1324 12.8062C16.1921 12.7397 16.2246 12.6489 16.2222 12.5551C16.2247 12.4788 16.2044 12.4043 16.1652 12.3428L16.1324 12.2993L12.9582 8.56752C12.8971 8.50007 12.8134 8.4637 12.7272 8.46707C12.6608 8.46543 12.5963 8.4884 12.5436 8.5315L12.5064 8.56752L9.32233 12.2881C9.26123 12.3614 9.22578 12.4564 9.22241 12.556C9.22405 12.7319 9.33968 12.8773 9.49138 12.9061L9.54317 12.9113H11.3108V16.4669H14.1389Z" fill="#70717A"/>
</svg>
