<svg width="17" height="17" viewBox="0 0 17 17" fill="none" xmlns="http://www.w3.org/2000/svg">
<path d="M7 0C10.8597 0 14 3.14032 14 7C14 7.15687 13.9936 7.31247 13.9834 7.4668H12.9033C12.9153 7.31275 12.9229 7.15717 12.9229 7C12.9229 3.72296 10.277 1.07715 7 1.07715C3.72296 1.07715 1.07715 3.72296 1.07715 7C1.07715 10.277 3.72296 12.9229 7 12.9229C7.25151 12.9229 7.49902 12.9053 7.74219 12.875L8.39941 13.8584C7.94705 13.9506 7.47917 14 7 14C3.14032 14 0 10.8597 0 7C1.9399e-07 3.14032 3.14032 1.93983e-07 7 0ZM7 2.69238C6.99301 2.69688 5.92285 3.38612 5.92285 3.9375C5.92285 5.04387 6.46191 4.8457 6.46191 4.8457C6.46191 4.8457 6.44434 8.43074 6.44434 8.7168C6.44453 9.00256 6.6258 9.1543 7 9.1543C7.3744 9.1543 8.07715 8.68262 8.07715 8.68262V5.38477C8.07715 4.99354 7.75263 4.49271 7.53809 4.30762C8.10135 4.30762 8.25506 4.61311 8.26172 4.62695C8.27105 4.61244 8.84214 3.73526 10.7695 3.23047C10.4751 3.60686 9.69285 4.64152 9.69238 4.98047V8.88477C9.69252 9.02108 9.88496 9.09671 10.0498 9.13086V10.2393C9.7782 10.4372 9.47975 10.6205 9.1543 10.7695L8.07715 10.2305L7 11.3076C6.99579 11.3073 4.74255 11.1401 3.76953 9.69238C4.03271 9.73235 4.82881 9.7994 4.8291 9.38965V6.0918C4.8291 5.82467 4.70696 5.7041 4.47559 5.7041C4.24369 5.70427 3.40722 5.86563 2.1543 8.07715C2.1543 5.50684 4.43811 3.14461 7 2.69238Z" fill="#70717A"/>
<path d="M14.1389 8.46686V12.0224H15.9065C15.9916 12.0218 16.0732 12.0598 16.1324 12.1275C16.1921 12.194 16.2246 12.2848 16.2222 12.3786C16.2247 12.4549 16.2044 12.5294 16.1652 12.5909L16.1324 12.6344L12.9582 16.3662C12.8971 16.4336 12.8134 16.47 12.7272 16.4666C12.6608 16.4683 12.5963 16.4453 12.5436 16.4022L12.5064 16.3662L9.32233 12.6456C9.26123 12.5724 9.22578 12.4773 9.22241 12.3777C9.22405 12.2019 9.33968 12.0564 9.49138 12.0276L9.54317 12.0224H11.3108V8.46686H14.1389Z" fill="#70717A"/>
</svg>
