<svg width="60" height="60" viewBox="0 0 60 60" fill="none" xmlns="http://www.w3.org/2000/svg">
<g clip-path="url(#clip0_7070_547)">
<path d="M27.712 0.552146L5.08185 13.4891C3.79083 14.2253 3 15.5906 3 17.063V42.937C3 44.4094 3.79759 45.7746 5.08185 46.5109L27.712 59.4481C29.003 60.1838 30.5914 60.1838 31.8825 59.4481L54.5125 46.5109C55.8035 45.7746 56.5944 44.4094 56.5944 42.937V17.063C56.5944 15.5906 55.7968 14.2253 54.5125 13.4891L31.8825 0.552146C30.5914 -0.184049 29.003 -0.184049 27.712 0.552146Z" fill="#2B2CA3"/>
<path d="M48.926 30.0643C48.926 28.7412 48.9194 27.4771 48.6548 26.1704C48.5225 25.5056 48.3605 24.3364 47.9536 23.5209C47.7883 23.1869 47.5799 22.9118 47.3153 22.7546C45.3209 21.5724 43.9713 25.44 43.7663 26.7697C42.4962 35.1142 40.1743 38.7036 37.6739 41.3431C37.6739 41.3431 37.6705 41.3464 37.6639 41.3563C37.5085 41.52 37.353 41.6772 37.1976 41.8344C36.073 42.9118 33.0036 45.3877 28.5319 45.4499C24.9564 45.4008 21.3975 44.0384 18.6688 41.3366C15.9401 38.6347 14.5642 35.1109 14.5146 31.5707C14.5774 27.1463 17.0812 24.1039 18.1661 22.9904C18.3248 22.8365 18.4836 22.6825 18.6489 22.5286C18.6589 22.5221 18.6622 22.5188 18.6622 22.5188C21.3314 20.0397 24.9531 17.7407 33.3807 16.4831C34.7235 16.2833 38.6264 14.9439 37.4357 12.9691C37.2769 12.7071 36.9991 12.5008 36.6618 12.337C35.8382 11.9342 34.6541 11.7737 33.986 11.6427C32.6696 11.384 31.3928 11.3774 30.0566 11.3774C19.5949 11.3774 11.1111 19.7777 11.1111 30.1363C11.1111 35.1339 13.0493 39.8039 16.5983 43.3539H16.6347V43.39C20.22 46.904 24.9366 48.8231 29.9839 48.8231C40.4423 48.8231 48.9294 40.4229 48.9294 30.0643H48.926Z" fill="url(#paint0_linear_7070_547)"/>
<path d="M36.9297 36.7879C36.9595 36.7617 36.9926 36.7322 37.0223 36.706C38.2494 35.6023 38.9142 34.3906 39.0829 34.0631C40.1314 31.7838 40.7334 29.2817 41.1104 26.8255C41.1138 26.7927 41.6859 23.5538 43.5349 22.6925C43.6043 22.6598 43.6737 22.6335 43.7432 22.6106C43.1842 21.4153 42.407 20.2953 41.4114 19.3095C41.3386 19.2374 41.2659 19.172 41.1931 19.0999C41.1236 19.0279 41.0542 18.9525 40.9814 18.8838C39.9859 17.898 38.8547 17.1284 37.6475 16.575C37.6243 16.6437 37.5978 16.7125 37.5648 16.7813C36.6916 18.6119 33.4205 19.1785 33.3907 19.1818C30.9101 19.5519 28.3831 20.1512 26.081 21.1893C25.78 21.34 24.7481 21.8967 23.7261 22.9021C23.7128 22.9152 23.7029 22.9251 23.6897 22.9348C23.6698 22.9545 23.65 22.9774 23.6269 23.0004C23.574 23.056 23.5177 23.1117 23.4648 23.1707C20.0481 26.8026 20.2135 32.5763 23.8981 36.2246C27.4834 39.7746 33.1062 40.0235 36.7842 36.9155C36.8338 36.873 36.8834 36.8337 36.933 36.7911L36.9297 36.7879Z" fill="url(#paint1_radial_7070_547)"/>
</g>
<defs>
<linearGradient id="paint0_linear_7070_547" x1="41.7057" y1="11.3774" x2="5.79236" y2="58.37" gradientUnits="userSpaceOnUse">
<stop stop-color="#71D0FF"/>
<stop offset="1" stop-color="#2D12D3"/>
</linearGradient>
<radialGradient id="paint1_radial_7070_547" cx="0" cy="0" r="1" gradientTransform="matrix(-17.4106 17.2393 -17.3173 -17.1756 40.3379 18.7004)" gradientUnits="userSpaceOnUse">
<stop stop-color="#71D0FF"/>
<stop offset="1" stop-color="#524CF6"/>
</radialGradient>
<clipPath id="clip0_7070_547">
<rect width="60" height="59.9714" fill="white"/>
</clipPath>
</defs>
</svg>
