<svg width="48" height="48" viewBox="0 0 48 48" fill="none" xmlns="http://www.w3.org/2000/svg">
<path d="M44 45H4C2.93908 45 1.92172 44.5898 1.17156 43.8595C0.4214 43.1292 0 42.1388 0 41.1061V6.06061C0 5.02782 0.4214 4.03744 1.17156 3.30717C1.92172 2.5769 2.93908 2.16667 4 2.16667H44C45.0609 2.16667 46.0783 2.5769 46.8284 3.30717C47.5786 4.03744 48 5.02782 48 6.06061V41.1061C48 42.1388 47.5786 43.1292 46.8284 43.8595C46.0783 44.5898 45.0609 45 44 45ZM4 4.11364C3.46952 4.11364 2.9608 4.31883 2.5858 4.68391C2.2108 5.04898 2 5.54424 2 6.06061V41.1061C2 41.6225 2.21078 42.1177 2.5858 42.4828C2.96082 42.8478 3.46956 43.053 4 43.053H44C44.5305 43.053 45.0392 42.8478 45.4142 42.4828C45.7892 42.1177 46 41.6224 46 41.1061V6.06061C46 5.5442 45.7892 5.04897 45.4142 4.68391C45.0392 4.31885 44.5304 4.11364 44 4.11364H4Z" fill="#BDBDBD"/>
<path d="M6.99996 8.00758H5.99996C5.64277 8.00758 5.3126 7.82201 5.13388 7.52084C4.95529 7.21966 4.95529 6.84851 5.13388 6.54735C5.31263 6.24618 5.6428 6.06061 5.99996 6.06061H6.99996C7.35715 6.06061 7.68732 6.24618 7.86604 6.54735C8.04463 6.84852 8.04463 7.21968 7.86604 7.52084C7.68729 7.82201 7.35712 8.00758 6.99996 8.00758Z" fill="#BDBDBD"/>
<path d="M12 8.00758H11C10.6428 8.00758 10.3127 7.82201 10.1339 7.52084C9.95535 7.21966 9.95535 6.84851 10.1339 6.54735C10.3127 6.24618 10.6429 6.06061 11 6.06061H12C12.3572 6.06061 12.6874 6.24618 12.8661 6.54735C13.0447 6.84852 13.0447 7.21968 12.8661 7.52084C12.6873 7.82201 12.3572 8.00758 12 8.00758Z" fill="#BDBDBD"/>
<path d="M42 8.00758H41C40.6428 8.00758 40.3127 7.82201 40.1339 7.52084C39.9554 7.21966 39.9554 6.84851 40.1339 6.54735C40.3127 6.24618 40.6429 6.06061 41 6.06061H42C42.3572 6.06061 42.6874 6.24618 42.8661 6.54735C43.0447 6.84852 43.0447 7.21968 42.8661 7.52084C42.6873 7.82201 42.3572 8.00758 42 8.00758Z" fill="#BDBDBD"/>
<path d="M12.6506 23V15.7273H13.7479V18.8878H17.3736V15.7273H18.4744V23H17.3736V19.8288H13.7479V23H12.6506ZM22.3381 23.1101C21.8007 23.1101 21.3378 22.9953 20.9496 22.7656C20.5637 22.5336 20.2654 22.2081 20.0547 21.7891C19.8464 21.3677 19.7422 20.8741 19.7422 20.3082C19.7422 19.7495 19.8464 19.2571 20.0547 18.831C20.2654 18.4048 20.5589 18.0722 20.9354 17.8331C21.3142 17.594 21.7569 17.4744 22.2635 17.4744C22.5713 17.4744 22.8696 17.5253 23.1584 17.6271C23.4472 17.7289 23.7064 17.8887 23.9361 18.1065C24.1657 18.3243 24.3468 18.6072 24.4794 18.9553C24.612 19.3009 24.6783 19.7211 24.6783 20.2159V20.5923H20.3423V19.7969H23.6378C23.6378 19.5175 23.581 19.2701 23.4673 19.0547C23.3537 18.8369 23.1939 18.6652 22.9879 18.5398C22.7843 18.4143 22.5452 18.3516 22.2706 18.3516C21.9723 18.3516 21.7119 18.425 21.4893 18.5717C21.2692 18.7161 21.0987 18.9055 20.978 19.1399C20.8596 19.3719 20.8004 19.6241 20.8004 19.8963V20.5178C20.8004 20.8823 20.8643 21.1925 20.9922 21.4482C21.1224 21.7038 21.3035 21.8991 21.5355 22.0341C21.7675 22.1667 22.0386 22.233 22.3487 22.233C22.55 22.233 22.7334 22.2045 22.8991 22.1477C23.0649 22.0885 23.2081 22.0009 23.3288 21.8849C23.4496 21.7689 23.5419 21.6257 23.6058 21.4553L24.6108 21.6364C24.5303 21.9323 24.3859 22.1915 24.1776 22.4141C23.9716 22.6342 23.7124 22.8059 23.3999 22.929C23.0897 23.0497 22.7358 23.1101 22.3381 23.1101ZM26.9181 15.7273V23H25.8564V15.7273H26.9181ZM29.4084 15.7273V23H28.3466V15.7273H29.4084ZM33.1344 23.1101C32.623 23.1101 32.1768 22.9929 31.7956 22.7585C31.4145 22.5241 31.1185 22.1963 30.9078 21.7749C30.6971 21.3535 30.5918 20.861 30.5918 20.2976C30.5918 19.7318 30.6971 19.237 30.9078 18.8132C31.1185 18.3894 31.4145 18.0604 31.7956 17.826C32.1768 17.5916 32.623 17.4744 33.1344 17.4744C33.6458 17.4744 34.092 17.5916 34.4732 17.826C34.8543 18.0604 35.1503 18.3894 35.361 18.8132C35.5717 19.237 35.677 19.7318 35.677 20.2976C35.677 20.861 35.5717 21.3535 35.361 21.7749C35.1503 22.1963 34.8543 22.5241 34.4732 22.7585C34.092 22.9929 33.6458 23.1101 33.1344 23.1101ZM33.138 22.2188C33.4694 22.2188 33.744 22.1312 33.9618 21.956C34.1796 21.7808 34.3406 21.5476 34.4448 21.2564C34.5513 20.9652 34.6046 20.6444 34.6046 20.294C34.6046 19.946 34.5513 19.6264 34.4448 19.3352C34.3406 19.0417 34.1796 18.8061 33.9618 18.6286C33.744 18.451 33.4694 18.3622 33.138 18.3622C32.8042 18.3622 32.5272 18.451 32.307 18.6286C32.0892 18.8061 31.927 19.0417 31.8205 19.3352C31.7163 19.6264 31.6642 19.946 31.6642 20.294C31.6642 20.6444 31.7163 20.9652 31.8205 21.2564C31.927 21.5476 32.0892 21.7808 32.307 21.956C32.5272 22.1312 32.8042 22.2188 33.138 22.2188ZM12.2972 35L10.2802 27.7273H11.4343L12.8512 33.3594H12.9187L14.3924 27.7273H15.5359L17.0096 33.3629H17.0771L18.4904 27.7273H19.6481L17.6275 35H16.5231L14.9925 29.5526H14.9357L13.4052 35H12.2972ZM22.3239 35.1101C21.8125 35.1101 21.3662 34.9929 20.9851 34.7585C20.6039 34.5241 20.308 34.1963 20.0973 33.7749C19.8866 33.3535 19.7812 32.861 19.7812 32.2976C19.7812 31.7318 19.8866 31.237 20.0973 30.8132C20.308 30.3894 20.6039 30.0604 20.9851 29.826C21.3662 29.5916 21.8125 29.4744 22.3239 29.4744C22.8352 29.4744 23.2815 29.5916 23.6626 29.826C24.0438 30.0604 24.3397 30.3894 24.5504 30.8132C24.7611 31.237 24.8665 31.7318 24.8665 32.2976C24.8665 32.861 24.7611 33.3535 24.5504 33.7749C24.3397 34.1963 24.0438 34.5241 23.6626 34.7585C23.2815 34.9929 22.8352 35.1101 22.3239 35.1101ZM22.3274 34.2188C22.6589 34.2188 22.9335 34.1312 23.1513 33.956C23.3691 33.7808 23.5301 33.5476 23.6342 33.2564C23.7408 32.9652 23.794 32.6444 23.794 32.294C23.794 31.946 23.7408 31.6264 23.6342 31.3352C23.5301 31.0417 23.3691 30.8061 23.1513 30.6286C22.9335 30.451 22.6589 30.3622 22.3274 30.3622C21.9936 30.3622 21.7166 30.451 21.4964 30.6286C21.2786 30.8061 21.1165 31.0417 21.0099 31.3352C20.9058 31.6264 20.8537 31.946 20.8537 32.294C20.8537 32.6444 20.9058 32.9652 21.0099 33.2564C21.1165 33.5476 21.2786 33.7808 21.4964 33.956C21.7166 34.1312 21.9936 34.2188 22.3274 34.2188ZM26.0517 35V29.5455H27.0779V30.4119H27.1348C27.2342 30.1184 27.4094 29.8875 27.6603 29.7195C27.9136 29.549 28.2001 29.4638 28.5197 29.4638C28.586 29.4638 28.6641 29.4661 28.7541 29.4709C28.8464 29.4756 28.9186 29.4815 28.9707 29.4886V30.5043C28.9281 30.4924 28.8523 30.4794 28.7434 30.4652C28.6345 30.4486 28.5256 30.4403 28.4167 30.4403C28.1658 30.4403 27.9421 30.4936 27.7456 30.6001C27.5514 30.7043 27.3975 30.8499 27.2839 31.0369C27.1703 31.2216 27.1135 31.4323 27.1135 31.669V35H26.0517ZM30.9513 27.7273V35H29.8896V27.7273H30.9513ZM34.4217 35.1065C33.9814 35.1065 33.5884 34.9941 33.2427 34.7692C32.8994 34.5419 32.6296 34.2187 32.4331 33.7997C32.2389 33.3783 32.1419 32.8729 32.1419 32.2834C32.1419 31.6939 32.2401 31.1896 32.4366 30.7706C32.6355 30.3516 32.9077 30.0308 33.2534 29.8082C33.599 29.5857 33.9908 29.4744 34.4288 29.4744C34.7673 29.4744 35.0396 29.5312 35.2456 29.6449C35.4539 29.7562 35.6149 29.8864 35.7285 30.0355C35.8445 30.1847 35.9345 30.3161 35.9984 30.4297H36.0623V27.7273H37.1241V35H36.0872V34.1513H35.9984C35.9345 34.2673 35.8422 34.3999 35.7214 34.549C35.603 34.6982 35.4397 34.8284 35.2314 34.9396C35.023 35.0509 34.7531 35.1065 34.4217 35.1065ZM34.6561 34.201C34.9615 34.201 35.2195 34.1205 35.4302 33.9595C35.6433 33.7962 35.8043 33.5701 35.9132 33.2812C36.0244 32.9924 36.0801 32.6562 36.0801 32.2727C36.0801 31.8939 36.0256 31.5625 35.9167 31.2784C35.8078 30.9943 35.648 30.773 35.4373 30.6143C35.2266 30.4557 34.9662 30.3764 34.6561 30.3764C34.3365 30.3764 34.0701 30.4593 33.8571 30.625C33.644 30.7907 33.483 31.0168 33.3741 31.3033C33.2676 31.5897 33.2143 31.9129 33.2143 32.2727C33.2143 32.6373 33.2688 32.9652 33.3777 33.2564C33.4866 33.5476 33.6475 33.7784 33.8606 33.9489C34.0761 34.117 34.3412 34.201 34.6561 34.201Z" fill="#BDBDBD"/>
</svg>
