<svg width="16" height="16" viewBox="0 0 16 16" fill="none" xmlns="http://www.w3.org/2000/svg">
<path fill-rule="evenodd" clip-rule="evenodd" d="M5.34141 9C6.16508 6.66962 8.38756 5 11 5C12.6526 5 14.1492 5.66815 15.2343 6.74906L13.6675 2.14286C13.5556 1.80871 13.3476 1.51929 13.0723 1.31457C12.797 1.10986 12.468 0.999939 12.1306 1H3.86939C3.53271 0.999667 3.20422 1.10903 2.92924 1.31302C2.65426 1.517 2.44634 1.80555 2.33415 2.13886L0 9H5.34141ZM5.08296 10H0V13.5C0 13.8978 0.168571 14.2794 0.468629 14.5607C0.768687 14.842 1.17565 15 1.6 15H6.52779C5.57771 13.9385 5 12.5367 5 11C5 10.6593 5.0284 10.3252 5.08296 10ZM3 13C3.55228 13 4 12.5523 4 12C4 11.4477 3.55228 11 3 11C2.44772 11 2 11.4477 2 12C2 12.5523 2.44772 13 3 13Z" fill="#BDBDBD"/>
<path fill-rule="evenodd" clip-rule="evenodd" d="M15.9074 8.83091L15.535 8.17091C15.4557 8.02988 15.3304 7.92209 15.1812 7.86654C15.032 7.81099 14.8684 7.81125 14.7193 7.86727L13.9657 8.14909C13.5896 7.80709 13.1499 7.54671 12.673 7.38364L12.5347 6.57455C12.5079 6.41368 12.4264 6.26774 12.3047 6.16257C12.183 6.05741 12.0289 5.99982 11.8697 6H11.125C10.966 5.99975 10.8122 6.05708 10.6905 6.16188C10.5688 6.26668 10.4872 6.4122 10.46 6.57273L10.3217 7.38182C9.84468 7.54462 9.40489 7.80503 9.02897 8.14727L8.27534 7.86546C8.12673 7.8104 7.96397 7.81064 7.81552 7.86614C7.66706 7.92165 7.54236 8.02888 7.46319 8.16909L7.0908 8.82909C7.0112 8.96996 6.98266 9.13513 7.01024 9.29547C7.03782 9.4558 7.11973 9.601 7.24153 9.70546L7.85508 10.2327C7.75482 10.7385 7.75482 11.2597 7.85508 11.7655L7.24153 12.2927C7.11973 12.3972 7.03782 12.5424 7.01024 12.7027C6.98266 12.8631 7.0112 13.0282 7.0908 13.1691L7.46319 13.8309C7.54248 13.9719 7.66779 14.0797 7.81702 14.1353C7.96625 14.1908 8.12982 14.1906 8.27888 14.1345L9.03252 13.8527C9.40861 14.1947 9.84835 14.4551 10.3252 14.6182L10.4635 15.4273C10.4907 15.5875 10.572 15.7328 10.6934 15.8375C10.8147 15.9423 10.9681 15.9998 11.1267 16H11.8715C12.0304 16.0003 12.1843 15.9429 12.306 15.8381C12.4276 15.7333 12.5093 15.5878 12.5365 15.4273L12.6748 14.6182C13.1517 14.4551 13.5914 14.1947 13.9675 13.8527L14.7211 14.1345C14.8702 14.1906 15.0337 14.1908 15.183 14.1353C15.3322 14.0797 15.4575 13.9719 15.5368 13.8309L15.9092 13.1709C15.9888 13.03 16.0173 12.8649 15.9898 12.7045C15.9622 12.5442 15.8803 12.399 15.7585 12.2945L15.1449 11.7673C15.245 11.2615 15.245 10.7403 15.1449 10.2345L15.7585 9.70727C15.88 9.60258 15.9616 9.45726 15.9888 9.29694C16.016 9.13662 15.9872 8.97158 15.9074 8.83091ZM11.4936 12.5455C12.3593 12.5455 13.0611 11.8128 13.0611 10.9091C13.0611 10.0054 12.3593 9.27273 11.4936 9.27273C10.6279 9.27273 9.92605 10.0054 9.92605 10.9091C9.92605 11.8128 10.6279 12.5455 11.4936 12.5455Z" fill="#BDBDBD"/>
</svg>
