<svg width="48" height="48" viewBox="0 0 48 48" fill="none" xmlns="http://www.w3.org/2000/svg">
<path d="M1 6C1 4.9 1.81 4 2.8 4H9.1L10.9 6H17.2C18.1945 6 19 6.895 19 8V8V18C19 19.105 18.1945 20 17.2 20V20H2.8C1.8055 20 1 19.105 1 18V18V6Z" stroke="#BDBDBD" stroke-width="2"/>
<path d="M48 39L45.6675 32.1429C45.5556 31.8087 45.3476 31.5193 45.0723 31.3146C44.797 31.1099 44.468 30.9999 44.1306 31H35.8694C35.5327 30.9997 35.2042 31.109 34.9292 31.313C34.6543 31.517 34.4463 31.8055 34.3341 32.1389L32 39H48Z" fill="#BDBDBD"/>
<path fill-rule="evenodd" clip-rule="evenodd" d="M32 43.5V40H48V43.5C48 43.8978 47.8314 44.2794 47.5314 44.5607C47.2313 44.842 46.8243 45 46.4 45H33.6C33.1757 45 32.7687 44.842 32.4686 44.5607C32.1686 44.2794 32 43.8978 32 43.5ZM36 42C36 42.5523 35.5523 43 35 43C34.4477 43 34 42.5523 34 42C34 41.4477 34.4477 41 35 41C35.5523 41 36 41.4477 36 42ZM39 42C39 42.5523 38.5523 43 38 43C37.4477 43 37 42.5523 37 42C37 41.4477 37.4477 41 38 41C38.5523 41 39 41.4477 39 42Z" fill="#BDBDBD"/>
<rect x="29" y="22" width="2" height="7" rx="1" fill="#C4C4C4"/>
<rect x="24" y="29" width="2" height="7" rx="1" transform="rotate(-90 24 29)" fill="#C4C4C4"/>
<rect x="22.3621" y="21.7763" width="2" height="9.31633" rx="1" transform="rotate(-45 22.3621 21.7763)" fill="#C4C4C4"/>
</svg>
