<svg width="48" height="48" viewBox="0 0 48 48" fill="none" xmlns="http://www.w3.org/2000/svg">
<g clip-path="url(#clip0_5808_591)">
<path fill-rule="evenodd" clip-rule="evenodd" d="M3 7H39C39.5523 7 40 7.44772 40 8V25C40 25.5523 40.4477 26 41 26V26C41.5523 26 42 25.5523 42 25V8C42 6.34315 40.6569 5 39 5H3C1.34315 5 0 6.34315 0 8V34C0 35.6569 1.34315 37 3 37H30C30.5523 37 31 36.5523 31 36V36C31 35.4477 30.5523 35 30 35H3C2.44772 35 2 34.5523 2 34V28.3018C2 28.033 2.14775 27.7863 2.35205 27.6115V27.6115C2.46294 27.5166 2.58746 27.4002 2.71997 27.2709C2.9861 27.011 3.31838 26.6651 3.69705 26.2583C4.45617 25.4428 5.4313 24.3505 6.49309 23.1393C8.61781 20.7156 11.1099 17.7928 12.9584 15.6021C12.9589 15.6015 12.9597 15.6015 12.9602 15.6021V15.6021L22.5784 28.2807C23.2618 29.1815 24.5555 29.3372 25.433 28.6242L31.2307 23.9136C31.6284 23.5904 32.206 23.6202 32.5684 23.9826L34.2929 25.7071C34.4804 25.8946 34.7348 26 35 26V26C35.8909 26 36.3371 24.9229 35.7071 24.2929L33.3448 21.9306C32.6201 21.2059 31.4649 21.1463 30.6694 21.7926L24.9742 26.42C24.5355 26.7765 23.8886 26.6986 23.547 26.2482L14.5536 14.3933C13.78 13.3736 12.2593 13.3293 11.4309 14.3111C9.58624 16.4972 7.10263 19.4101 4.98918 21.8209C3.93168 23.0272 2.97192 24.102 2.23314 24.8956V24.8956C2.14961 24.9854 2 24.9261 2 24.8035V8C2 7.44772 2.44772 7 3 7Z" fill="#BDBDBD"/>
<path fill-rule="evenodd" clip-rule="evenodd" d="M46.8853 31.2394L47.9286 33.0112C48.0613 33.2438 48.0044 33.5302 47.7958 33.6913L46.5629 34.6219C46.7715 35.5347 46.7715 36.4653 46.5629 37.3781L47.7958 38.3087C48.0044 38.4698 48.0613 38.7562 47.9286 38.9888L46.8853 40.7606C46.7526 40.9933 46.468 41.1007 46.2025 41.0112L44.723 40.5101C43.9264 41.2438 42.959 41.7808 41.8968 42.085L41.6502 43.5526C41.6123 43.821 41.3657 44 41.0812 44H38.9378C38.6533 44 38.4067 43.821 38.3688 43.5526L38.1032 42.085C37.041 41.7987 36.0736 41.2617 35.277 40.528L33.7975 41.0112C33.532 41.1007 33.2474 40.9933 33.1147 40.7606L32.0714 38.9888C31.9387 38.7562 31.9956 38.4698 32.2042 38.3087L33.4561 37.3781C33.2474 36.4653 33.2474 35.5347 33.4561 34.6219L32.2232 33.6913C31.9956 33.5302 31.9387 33.2438 32.0714 33.0112L33.1147 31.2394C33.2474 31.0067 33.532 30.8993 33.7975 30.9888L35.277 31.4899C36.0736 30.7562 37.041 30.2192 38.1032 29.915L38.3498 28.4474C38.3877 28.179 38.6343 28 38.9188 28H41.0622C41.3467 28 41.5933 28.179 41.6312 28.4474L41.8968 29.915C42.959 30.2013 43.9264 30.7383 44.723 31.472L46.2025 30.9888C46.468 30.8993 46.7526 31.0067 46.8853 31.2394ZM36.2667 36C36.2667 38.07 37.93 39.7333 40 39.7333C42.0515 39.7149 43.7149 38.0515 43.7333 36C43.7333 33.93 42.07 32.2667 40 32.2667C37.93 32.2667 36.2667 33.93 36.2667 36Z" fill="#BDBDBD"/>
<circle cx="30" cy="13" r="3" fill="#BDBDBD"/>
</g>
<defs>
<clipPath id="clip0_5808_591">
<rect width="48" height="48" fill="white"/>
</clipPath>
</defs>
</svg>
