<svg width="72" height="56" viewBox="0 0 72 56" fill="none" xmlns="http://www.w3.org/2000/svg">
<g clip-path="url(#clip0_5831_293202)">
<path d="M35.3213 16.3966L19.6024 0.678962C18.6979 -0.226321 17.2298 -0.226321 16.3243 0.678962L13.0604 3.94326L17.2005 8.08352C18.163 7.75855 19.2662 7.97644 20.033 8.74346C20.8038 9.51527 21.0202 10.6279 20.6871 11.5936L24.6774 15.5841C25.6428 15.2514 26.7566 15.4664 27.5274 16.2386C28.6052 17.3161 28.6052 19.0619 27.5274 20.1397C26.4496 21.2177 24.7038 21.2177 23.6253 20.1397C22.8149 19.3286 22.6145 18.138 23.0249 17.1395L19.3035 13.4179L19.3032 23.2111C19.566 23.3412 19.8139 23.5148 20.0329 23.7328C21.1103 24.8101 21.1103 26.5557 20.0329 27.6348C18.9552 28.7121 17.2086 28.7121 16.132 27.6348C15.0544 26.5558 15.0544 24.8102 16.132 23.7328C16.3983 23.467 16.7064 23.2658 17.0352 23.1309V13.2467C16.7063 13.1124 16.3985 12.9127 16.1318 12.6447C15.3156 11.8291 15.119 10.6311 15.5376 9.6288L11.4563 5.54669L0.679148 16.3239C-0.226383 17.2299 -0.226383 18.6981 0.679148 19.6034L16.3971 35.321C17.302 36.2263 18.7696 36.2263 19.6758 35.321L35.3211 19.6777C36.2263 18.7719 36.2263 17.3034 35.3211 16.3979" fill="#EEEEEE"/>
<path fill-rule="evenodd" clip-rule="evenodd" d="M51 19C46.58 19 43 22.58 43 27C43 30.54 45.29 33.53 48.47 34.59C48.87 34.66 49.02 34.42 49.02 34.21C49.02 34.02 49.01 33.39 49.01 32.72C47 33.09 46.48 32.23 46.32 31.78C46.23 31.55 45.84 30.84 45.5 30.65C45.22 30.5 44.82 30.13 45.49 30.12C46.12 30.11 46.57 30.7 46.72 30.94C47.44 32.15 48.59 31.81 49.05 31.6C49.12 31.08 49.33 30.73 49.56 30.53C47.78 30.33 45.92 29.64 45.92 26.58C45.92 25.71 46.23 24.99 46.74 24.43C46.66 24.23 46.38 23.41 46.82 22.31C46.82 22.31 47.49 22.1 49.02 23.13C49.66 22.95 50.34 22.86 51.02 22.86C51.7 22.86 52.38 22.95 53.02 23.13C54.55 22.09 55.22 22.31 55.22 22.31C55.66 23.41 55.38 24.23 55.3 24.43C55.81 24.99 56.12 25.7 56.12 26.58C56.12 29.65 54.25 30.33 52.47 30.53C52.76 30.78 53.01 31.26 53.01 32.01C53.01 33.08 53 33.94 53 34.21C53 34.42 53.15 34.67 53.55 34.59C56.71 33.53 59 30.53 59 27C59 22.58 55.42 19 51 19Z" fill="#BDBDBD"/>
<path d="M25.402 50.7034C27.4576 50.3411 29.1555 50.0413 29.175 50.0372L29.2104 50.0297L27.2697 47.7267C26.2023 46.4601 25.329 45.4188 25.329 45.4128C25.329 45.4015 27.3329 39.8961 27.3442 39.8765C27.348 39.8699 28.7117 42.2188 30.65 45.5704C32.4647 48.7082 33.9608 51.2953 33.9747 51.3196L34 51.3636L27.8322 51.3628L21.6645 51.3621L25.402 50.7034ZM18 50.0011C18 49.9978 18.9145 48.4142 20.0321 46.4818L22.0642 42.9684L24.4325 40.9857C25.735 39.8952 26.8042 39.0017 26.8085 39C26.8127 38.9984 26.7956 39.0414 26.7704 39.0957C26.7451 39.1499 25.588 41.6261 24.1988 44.5983L21.6732 50.0024L19.8366 50.0047C18.8265 50.0059 18 50.0043 18 50.0011Z" fill="#BDBDBD"/>
<path d="M53.0507 51.5029C52.8457 51.5054 52.6657 51.6479 52.6182 51.8479C52.5707 52.0479 52.6682 52.2554 52.8457 52.3479C53.0382 52.4479 53.2832 52.3929 53.4132 52.2129C53.5407 52.0354 53.5207 51.7904 53.3682 51.6354L53.9682 50.4079C54.0057 50.4104 54.0607 50.4129 54.1232 50.3954C54.2257 50.3729 54.3007 50.3054 54.3007 50.3054C54.4057 50.3504 54.5157 50.4004 54.6307 50.4579C54.7507 50.5179 54.8632 50.5804 54.9657 50.6404C54.9882 50.6529 55.0107 50.6679 55.0357 50.6879C55.0757 50.7204 55.1207 50.7654 55.1532 50.8254C55.2007 50.9629 55.1057 51.1979 55.1057 51.1979C55.0482 51.3879 54.6457 52.2129 54.6457 52.2129C54.4432 52.2079 54.2632 52.3379 54.2032 52.5254C54.1382 52.7279 54.2307 52.9579 54.4257 53.0579C54.6207 53.1579 54.8607 53.1004 54.9882 52.9254C55.1132 52.7554 55.1032 52.5179 54.9607 52.3604C55.0082 52.2679 55.0532 52.1754 55.1007 52.0779C55.2257 51.8179 55.4382 51.3179 55.4382 51.3179C55.4607 51.2754 55.5807 51.0604 55.5057 50.7854C55.4432 50.5004 55.1907 50.3679 55.1907 50.3679C54.8857 50.1704 54.4607 49.9879 54.4607 49.9879C54.4607 49.9879 54.4607 49.8854 54.4332 49.8104C54.4057 49.7329 54.3632 49.6829 54.3357 49.6529C54.4532 49.4104 54.5707 49.1704 54.6882 48.9279C54.5857 48.8779 54.4857 48.8279 54.3832 48.7754C54.2632 49.0204 54.1407 49.2679 54.0207 49.5129C53.8532 49.5104 53.6982 49.6004 53.6182 49.7479C53.5332 49.9054 53.5507 50.1004 53.6657 50.2429C53.4607 50.6629 53.2557 51.0829 53.0507 51.5029Z" fill="#BDBDBD"/>
<path fill-rule="evenodd" clip-rule="evenodd" d="M60.3274 45.6453C60.3274 45.6453 60.4649 45.6428 60.5674 45.7453C60.5701 45.748 60.5733 45.751 60.577 45.7545C60.64 45.814 60.8314 45.9948 60.8574 46.8103C60.8574 49.6603 59.4774 52.5878 59.4774 52.5878C59.3774 52.8103 59.2624 53.0453 59.1249 53.2878C58.6749 54.0753 58.3524 54.4203 58.3524 54.4203C58.3524 54.4203 58.0399 54.7928 57.6899 55.0053C57.2824 55.2653 56.9824 55.2628 56.9824 55.2628C56.9824 55.2628 53.8349 55.2653 52.2599 55.2653C51.6349 55.1878 50.9924 54.5428 50.3674 53.7153C49.9049 53.0503 49.6024 52.3278 49.6024 52.3278C49.6024 52.3278 47.1374 52.3603 45.9924 50.9578C45.3724 50.2503 45.2424 49.4378 45.1999 49.1453C45.1987 49.1372 45.1972 49.1276 45.1956 49.1165C45.1471 48.7984 44.9153 47.2765 46.0024 46.3078C46.5099 45.8203 47.1299 45.6803 47.3474 45.6353C47.7124 45.5556 48.003 45.5758 48.2348 45.5919C48.265 45.594 48.2942 45.596 48.3224 45.5978C48.7074 45.6328 52.2424 45.8103 52.2424 45.8103C52.2424 45.8103 53.7474 45.8753 54.4724 45.8653C54.4724 45.8653 54.4749 47.6798 54.4749 48.5912L54.3902 48.7621L53.9174 48.5328C53.9174 48.5328 53.6699 48.4103 53.4674 48.4628C53.4124 48.4753 53.3699 48.4928 53.3549 48.5003C53.1699 48.5828 53.0499 48.8253 53.0499 48.8253L51.6924 51.6228C51.6924 51.6228 51.5699 51.8728 51.6249 52.0753C51.6724 52.3228 51.9449 52.4653 51.9449 52.4653L54.7674 53.8403C54.8924 53.8903 54.8999 53.8928 54.8999 53.8928C54.8999 53.8928 55.0124 53.9328 55.1574 53.9228C55.4949 53.9003 55.6474 53.5378 55.6474 53.5378C55.6474 53.5378 56.8649 51.0953 57.0224 50.7103C57.0549 50.6303 57.1149 50.4653 57.0674 50.2803C56.9999 50.0178 56.6849 49.8753 56.6849 49.8753L54.8043 48.963L54.8889 48.7923C54.8893 48.7925 54.8896 48.7926 54.8899 48.7928V48.7904L54.9041 48.7618L54.8899 48.7547V45.8628C55.2137 45.8603 55.54 45.8529 55.8687 45.8455L55.8799 45.8453C57.3974 45.8103 60.3274 45.6453 60.3274 45.6453ZM47.2174 50.3803C47.2174 50.3803 47.4924 50.6353 48.1399 50.8478C48.5624 50.9978 49.2149 51.0753 49.2149 51.0753C49.2149 51.0753 48.7749 49.8628 48.5949 49.1328C48.3799 48.2628 48.2024 46.7778 48.2024 46.7778C48.2024 46.7778 47.7724 46.7628 47.4274 46.8553C46.6749 47.0428 46.4649 47.6053 46.4649 47.6053C46.4649 47.6053 46.0874 48.2803 46.4999 49.3853C46.7399 50.0453 47.2174 50.3803 47.2174 50.3803Z" fill="#BDBDBD"/>
</g>
<defs>
<clipPath id="clip0_5831_293202">
<rect width="72" height="56" fill="white"/>
</clipPath>
</defs>
</svg>
