<svg width="48" height="48" viewBox="0 0 48 48" fill="none" xmlns="http://www.w3.org/2000/svg">
<path d="M17.1991 10.2818H17.2778V10.2789C18.5302 10.2789 19.7313 10.7383 20.6169 11.5561C21.5025 12.3738 22 13.4829 22 14.6394C22 15.7959 21.5025 16.9051 20.6169 17.7228C19.7313 18.5406 18.5302 19 17.2778 19H5.47215C5.35055 19 5.23289 18.9971 5.10421 18.9862C3.68385 18.8895 2.35924 18.2886 1.40823 17.3097C0.457219 16.3307 -0.0462808 15.0497 0.00334946 13.7354C0.0529797 12.421 0.651883 11.1755 1.67443 10.2601C2.69697 9.34467 4.06369 8.83047 5.48789 8.82536C5.58797 8.82556 5.68438 8.79053 5.75748 8.72742C5.83059 8.6643 5.87491 8.57783 5.88141 8.4856C5.93136 7.78985 6.22898 6.37623 6.57496 5.75644C6.92093 5.13665 7.4012 4.58915 7.98592 4.14794C8.57065 3.70673 9.24736 3.38123 9.97404 3.19165C10.7007 3.00206 11.4618 2.95245 12.2101 3.04587C12.9585 3.1393 13.678 3.37379 14.324 3.73476C14.9701 4.09573 15.5289 4.57549 15.9657 5.14425C16.4026 5.71301 16.7081 6.35862 16.8635 7.041C17.0188 7.72337 16.9272 9.16271 16.7752 9.84573C16.7626 9.90158 16.7643 9.95939 16.7804 10.0145C16.7964 10.0696 16.8263 10.1204 16.8675 10.1629C16.9088 10.2053 16.9603 10.2382 17.0179 10.2589C17.0755 10.2795 17.1376 10.2874 17.1991 10.2818Z" fill="#BDBDBD"/>
<path d="M48 39L45.6675 32.1429C45.5556 31.8087 45.3476 31.5193 45.0723 31.3146C44.797 31.1099 44.468 30.9999 44.1306 31H35.8694C35.5327 30.9997 35.2042 31.109 34.9292 31.313C34.6543 31.517 34.4463 31.8055 34.3341 32.1389L32 39H48Z" fill="#BDBDBD"/>
<path fill-rule="evenodd" clip-rule="evenodd" d="M32 43.5V40H48V43.5C48 43.8978 47.8314 44.2794 47.5314 44.5607C47.2313 44.842 46.8243 45 46.4 45H33.6C33.1757 45 32.7687 44.842 32.4686 44.5607C32.1686 44.2794 32 43.8978 32 43.5ZM36 42C36 42.5523 35.5523 43 35 43C34.4477 43 34 42.5523 34 42C34 41.4477 34.4477 41 35 41C35.5523 41 36 41.4477 36 42ZM39 42C39 42.5523 38.5523 43 38 43C37.4477 43 37 42.5523 37 42C37 41.4477 37.4477 41 38 41C38.5523 41 39 41.4477 39 42Z" fill="#BDBDBD"/>
<rect x="29" y="22" width="2" height="7" rx="1" fill="#C4C4C4"/>
<rect x="24" y="29" width="2" height="7" rx="1" transform="rotate(-90 24 29)" fill="#C4C4C4"/>
<rect x="22.3621" y="21.7763" width="2" height="9.31633" rx="1" transform="rotate(-45 22.3621 21.7763)" fill="#C4C4C4"/>
</svg>
