<svg width="16" height="16" viewBox="0 0 16 16" fill="none" xmlns="http://www.w3.org/2000/svg">
<path fill-rule="evenodd" clip-rule="evenodd" d="M13.6675 2.14286L16 9H14.2705C13.5969 7.84055 12.4429 7 11 7C9.55741 7 8.40366 7.84009 7.73058 9H0L2.33415 2.13886C2.44634 1.80555 2.65426 1.517 2.92924 1.31302C3.20422 1.10903 3.53271 0.999667 3.86939 1H12.1306C12.468 0.999939 12.797 1.10986 13.0723 1.31457C13.3476 1.51929 13.5556 1.80871 13.6675 2.14286ZM7.07017 10H0V13.5C0 13.8978 0.168571 14.2794 0.468629 14.5607C0.768687 14.842 1.17565 15 1.6 15H5.3458C5.12005 14.4918 5 13.9336 5 13.3846C5 11.9966 5.76736 10.5501 7.07017 10ZM3 13C3.55228 13 4 12.5523 4 12C4 11.4477 3.55228 11 3 11C2.44772 11 2 11.4477 2 12C2 12.5523 2.44772 13 3 13Z" fill="#BDBDBD"/>
<path d="M13.8282 10.8168C13.9026 10.8056 13.9872 10.8 14.0769 10.8C15.1385 10.8 16 11.7408 16 12.9C16 14.0592 15.1385 15 14.0769 15H11.641H10.359H7.92308C6.86154 15 6 14.0592 6 12.9C6 11.7408 6.86154 10.8 7.92308 10.8C8.01282 10.8 8.09744 10.8056 8.17179 10.8196H8.17692H8.17949C8.18718 10.8196 8.19487 10.8168 8.20256 10.8168H8.20257C8.21026 10.8168 8.21539 10.8168 8.22308 10.814C8.23333 10.8112 8.24103 10.8056 8.24872 10.8C8.25641 10.7972 8.2641 10.7944 8.26923 10.7888C8.27692 10.7832 8.27949 10.7776 8.28462 10.772C8.28974 10.7636 8.29744 10.7552 8.30256 10.7468C8.30769 10.7384 8.30769 10.7328 8.31026 10.7244L8.31795 10.6992V10.6936V10.6908C8.43333 9.1816 9.61026 8 11 8C12.3897 8 13.5667 9.1816 13.6846 10.688V10.6908V10.6964C13.6846 10.7048 13.6872 10.7104 13.6897 10.716C13.6923 10.7244 13.6949 10.7356 13.7 10.744C13.7026 10.7524 13.7077 10.758 13.7128 10.7636L13.7128 10.7636C13.7205 10.7692 13.7231 10.7776 13.7308 10.7832C13.7385 10.7888 13.7436 10.7916 13.7513 10.7972C13.759 10.8028 13.7641 10.8056 13.7718 10.8084C13.7795 10.8112 13.7872 10.814 13.7949 10.814C13.8 10.814 13.8051 10.8168 13.8103 10.8168H13.8205H13.8231H13.8282Z" fill="#BDBDBD"/>
</svg>
