<svg width="16" height="16" viewBox="0 0 16 16" fill="none" xmlns="http://www.w3.org/2000/svg">
<rect x="14.6035" y="0.679047" width="2.59474" height="19.6367" rx="1.29737" transform="rotate(45 14.6035 0.679047)" fill="#BDBDBD"/>
<path fill-rule="evenodd" clip-rule="evenodd" d="M5.36629 15H14.4C14.8243 15 15.2313 14.842 15.5314 14.5607C15.8314 14.2794 16 13.8978 16 13.5V10H10.3663L5.36629 15ZM3.86835 10L0.92856 12.9398C0.539535 13.3288 0.319195 13.8227 0.26754 14.3304C0.0943565 14.0862 0 13.7976 0 13.5V10H3.86835ZM11.3663 9H16L14.8239 5.54242L11.3663 9ZM12.743 1.12536L4.86835 9H0L2.33415 2.13886C2.44634 1.80555 2.65426 1.517 2.92924 1.31302C3.20422 1.10903 3.53271 0.999667 3.86939 1H12.1306C12.3417 0.999962 12.5495 1.04299 12.743 1.12536Z" fill="#BDBDBD"/>
</svg>
