<svg width="16" height="16" viewBox="0 0 16 16" fill="none" xmlns="http://www.w3.org/2000/svg">
<path d="M15.6983 7.28736L8.71216 0.301761C8.31019 -0.100587 7.65771 -0.100587 7.25524 0.301761L5.80464 1.75256L7.64468 3.59268C8.07244 3.44824 8.56275 3.54508 8.90357 3.88598C9.24615 4.22901 9.3423 4.72352 9.19425 5.15273L10.9677 6.92627C11.3968 6.77841 11.8918 6.87394 12.2344 7.21716C12.7134 7.69603 12.7134 8.47197 12.2344 8.95096C11.7554 9.43011 10.9794 9.43011 10.5001 8.95096C10.14 8.59051 10.0509 8.06131 10.2333 7.61755L8.57935 5.96352L8.57921 10.3161C8.69598 10.3739 8.80618 10.451 8.9035 10.5479C9.38234 11.0267 9.38234 11.8025 8.9035 12.2821C8.42451 12.7609 7.64824 12.7609 7.16977 12.2821C6.69085 11.8026 6.69085 11.0268 7.16977 10.5479C7.28812 10.4298 7.42507 10.3403 7.5712 10.2804V5.88741C7.425 5.82772 7.28821 5.73896 7.16968 5.61987C6.80693 5.25738 6.71956 4.72495 6.9056 4.27947L5.09168 2.4652L0.301844 7.25509C-0.100615 7.65774 -0.100615 8.31025 0.301844 8.71263L7.2876 15.6982C7.68979 16.1006 8.34204 16.1006 8.7448 15.6982L15.6983 8.74563C16.1006 8.34309 16.1006 7.69038 15.6983 7.28795" fill="#BDBDBD"/>
</svg>
