<svg width="48" height="48" viewBox="0 0 48 48" fill="none" xmlns="http://www.w3.org/2000/svg">
<path fill-rule="evenodd" clip-rule="evenodd" d="M0 3C0 1.34315 1.34315 0 3 0H45C46.6569 0 48 1.34315 48 3V45C48 46.6569 46.6569 48 45 48H3C1.34315 48 0 46.6569 0 45V3ZM2 2H46V34H2V2ZM6.06108 44.8125C6.26278 45.0114 6.50426 45.1108 6.78551 45.1108C6.97017 45.1108 7.1392 45.0653 7.29261 44.9744C7.44602 44.8807 7.5696 44.7571 7.66335 44.6037C7.75994 44.4474 7.80824 44.2756 7.80824 44.0881C7.80824 43.8097 7.70597 43.571 7.50142 43.3722C7.29688 43.1733 7.05824 43.0739 6.78551 43.0739C6.50426 43.0739 6.26278 43.1733 6.06108 43.3722C5.86222 43.571 5.76278 43.8097 5.76278 44.0881C5.76278 44.3693 5.86222 44.6108 6.06108 44.8125ZM9.33274 36.2727V45H11.1225V43.9517H11.2035C11.2859 44.1335 11.4052 44.3139 11.5614 44.4929C11.7177 44.669 11.918 44.8153 12.1623 44.9318C12.4094 45.0483 12.7092 45.1065 13.0614 45.1065C13.5586 45.1065 14.0075 44.9787 14.408 44.723C14.8114 44.4645 15.1296 44.0852 15.3626 43.5852C15.5984 43.0824 15.7163 42.4659 15.7163 41.7358C15.7163 40.9858 15.5955 40.3622 15.354 39.8651C15.1126 39.3651 14.7901 38.9915 14.3867 38.7443C13.9833 38.4943 13.543 38.3693 13.0657 38.3693C12.6992 38.3693 12.3924 38.4318 12.1452 38.5568C11.9009 38.679 11.7021 38.8324 11.5487 39.017C11.3981 39.1989 11.283 39.3778 11.2035 39.554H11.1481V36.2727H9.33274ZM11.2717 42.7457C11.1637 42.456 11.1097 42.1165 11.1097 41.7273C11.1097 41.3381 11.1637 41 11.2717 40.7131C11.3796 40.4261 11.5344 40.2045 11.7362 40.0483C11.9407 39.892 12.1907 39.8139 12.4862 39.8139C12.7844 39.8139 13.0359 39.8949 13.2404 40.0568C13.445 40.2188 13.5998 40.4432 13.7049 40.7301C13.81 41.017 13.8626 41.3494 13.8626 41.7273C13.8626 42.108 13.8086 42.4446 13.7006 42.7372C13.5955 43.027 13.4407 43.2543 13.2362 43.419C13.0316 43.581 12.7816 43.6619 12.4862 43.6619C12.1935 43.6619 11.945 43.5824 11.7404 43.4233C11.5359 43.2614 11.3796 43.0355 11.2717 42.7457ZM18.7429 45V36.2727H16.9276V45H18.7429ZM21.4414 44.7188C21.9272 44.9915 22.5067 45.1278 23.18 45.1278C23.7198 45.1278 24.1957 45.0455 24.6076 44.8807C25.0224 44.7131 25.3604 44.4801 25.6218 44.1818C25.886 43.8807 26.0607 43.5284 26.146 43.125L24.467 43.0142C24.4045 43.179 24.3136 43.3182 24.1942 43.4318C24.0749 43.5455 23.9315 43.6307 23.7638 43.6875C23.5962 43.7443 23.4116 43.7727 23.2099 43.7727C22.9059 43.7727 22.6431 43.7088 22.4215 43.581C22.1999 43.4531 22.0281 43.2713 21.9059 43.0355C21.7866 42.7997 21.7269 42.5199 21.7269 42.196V42.1918H26.1843V41.6932C26.1843 41.1364 26.1062 40.6506 25.9499 40.2358C25.7937 39.8182 25.5749 39.4716 25.2937 39.196C25.0153 38.9205 24.6886 38.7145 24.3136 38.5781C23.9414 38.4389 23.5394 38.3693 23.1076 38.3693C22.4656 38.3693 21.9059 38.5114 21.4286 38.7955C20.9542 39.0795 20.5863 39.4759 20.3249 39.9844C20.0636 40.4929 19.9329 41.0838 19.9329 41.7571C19.9329 42.4474 20.0636 43.0455 20.3249 43.5511C20.5863 44.054 20.9585 44.4432 21.4414 44.7188ZM21.7286 41.0668C21.7396 40.8317 21.8001 40.6172 21.9102 40.4233C22.0295 40.2102 22.1942 40.0412 22.4045 39.9162C22.6175 39.7884 22.8619 39.7244 23.1374 39.7244C23.4016 39.7244 23.6332 39.7827 23.832 39.8991C24.0337 40.0128 24.1914 40.1705 24.305 40.3722C24.4187 40.5739 24.4755 40.8054 24.4755 41.0668H21.7286ZM29.1843 45V41.2159C29.1871 40.9347 29.2397 40.6946 29.342 40.4957C29.4471 40.294 29.592 40.1406 29.7766 40.0355C29.9641 39.9304 30.18 39.8778 30.4244 39.8778C30.788 39.8778 31.0735 39.9915 31.2809 40.2188C31.4883 40.4432 31.5906 40.7557 31.5877 41.1562V45H33.4031V40.8324C33.4031 40.3239 33.3093 39.8864 33.1218 39.5199C32.9343 39.1506 32.6715 38.8665 32.3335 38.6676C31.9954 38.4688 31.5991 38.3693 31.1445 38.3693C30.6587 38.3693 30.2454 38.4815 29.9045 38.706C29.5636 38.9276 29.3207 39.2287 29.1758 39.6094H29.0991V38.4545H27.369V45H29.1843ZM35.8949 44.723C36.2983 44.9787 36.7486 45.1065 37.2457 45.1065C37.598 45.1065 37.8963 45.0483 38.1406 44.9318C38.3878 44.8153 38.5881 44.669 38.7415 44.4929C38.8977 44.3139 39.0185 44.1335 39.1037 43.9517H39.1804V45H40.9702V36.2727H39.1591V39.554H39.1037C39.0241 39.3778 38.9077 39.1989 38.7543 39.017C38.6037 38.8324 38.4048 38.679 38.1577 38.5568C37.9134 38.4318 37.608 38.3693 37.2415 38.3693C36.7614 38.3693 36.3196 38.4943 35.9162 38.7443C35.5156 38.9915 35.1946 39.3651 34.9531 39.8651C34.7116 40.3622 34.5909 40.9858 34.5909 41.7358C34.5909 42.4659 34.7074 43.0824 34.9403 43.5852C35.1761 44.0852 35.4943 44.4645 35.8949 44.723ZM38.5625 43.4233C38.3608 43.5824 38.1136 43.6619 37.821 43.6619C37.5227 43.6619 37.2713 43.581 37.0668 43.419C36.8651 43.2543 36.7102 43.027 36.6023 42.7372C36.4972 42.4446 36.4446 42.108 36.4446 41.7273C36.4446 41.3494 36.4972 41.017 36.6023 40.7301C36.7074 40.4432 36.8622 40.2188 37.0668 40.0568C37.2713 39.8949 37.5227 39.8139 37.821 39.8139C38.1136 39.8139 38.3622 39.892 38.5668 40.0483C38.7713 40.2045 38.9276 40.4261 39.0355 40.7131C39.1435 41 39.1974 41.3381 39.1974 41.7273C39.1974 42.1165 39.142 42.456 39.0312 42.7457C38.9233 43.0355 38.767 43.2614 38.5625 43.4233Z" fill="#C4C4C4"/>
<path d="M37.912 19.3647C37.736 18.1469 37.3071 16.992 36.6366 15.9324C36.0519 15.0077 35.3017 14.1853 34.4062 13.4863L34.4086 13.4841L25.0039 6.38168C24.9971 6.37581 24.99 6.37028 24.9827 6.36511C24.67 6.12959 24.2467 6 23.7911 6C23.3349 6 22.895 6.12988 22.553 6.36586C22.1854 6.61841 21.9752 6.9535 21.9605 7.31019C21.9471 7.64297 22.1085 7.96318 22.4163 8.21278C23.0216 8.68237 23.6255 9.16219 24.2303 9.64258C24.8172 10.109 25.4219 10.5893 26.0238 11.057L14.5044 11.0493C13.1871 11.0493 12.2901 11.6575 12.1056 12.6759C12.0245 13.1219 12.1676 13.6123 12.4874 13.988C12.8267 14.3861 13.3194 14.6058 13.8746 14.6058L14.7528 14.6064C15.9659 14.6064 17.1844 14.6034 18.4013 14.6005L19.5617 14.5979L9.10692 22.2031L9.06542 22.2329C8.48145 22.673 8.09914 23.29 8.01665 23.9256C7.95413 24.4072 8.06838 24.8472 8.34718 25.1986C8.67947 25.6176 9.19827 25.8481 9.80814 25.8481C10.4073 25.8481 11.0186 25.6248 11.5303 25.2184L17.176 20.6754C17.1519 20.8973 17.1226 21.2227 17.1259 21.4589C17.1323 21.8329 17.2544 22.5834 17.4477 23.1926C17.8472 24.4446 18.52 25.5902 19.4475 26.5962C20.4125 27.6429 21.5879 28.4728 22.9406 29.0624C24.3708 29.6843 25.9082 30 27.5102 30H27.5251C29.1323 29.9962 30.6746 29.6755 32.1093 29.0464C33.4643 28.4499 34.6391 27.6166 35.6005 26.5701C36.5268 25.559 37.1987 24.4115 37.5974 23.1605C37.7947 22.5412 37.921 21.9022 37.9741 21.2554C38.0234 20.6302 38.0022 19.9941 37.912 19.3647V19.3647ZM27.6274 25.3658C24.0966 25.3658 21.2334 22.8474 21.2334 19.7406C21.2334 16.6342 24.0967 14.1158 27.6274 14.1158C31.1582 14.1158 34.0211 16.6342 34.0211 19.7406C34.0212 22.8474 31.1582 25.3658 27.6274 25.3658ZM31.3147 19.2463C31.3667 20.1736 30.9901 21.0345 30.3286 21.6719C29.6557 22.3212 28.6956 22.729 27.622 22.729C26.5488 22.729 25.5885 22.3212 24.9154 21.6719C24.2542 21.0345 23.8783 20.1737 23.9301 19.2471C23.9808 18.3464 24.4277 17.5513 25.1007 16.9884C25.7625 16.4349 26.6512 16.0972 27.6219 16.0972C28.5928 16.0972 29.4812 16.435 30.1431 16.9884C30.8165 17.5513 31.2634 18.3458 31.3147 19.2463V19.2463Z" fill="#BDBDBD"/>
</svg>
