<svg width="48" height="48" viewBox="0 0 48 48" fill="none" xmlns="http://www.w3.org/2000/svg">
<path fill-rule="evenodd" clip-rule="evenodd" d="M0 3C0 1.34315 1.34315 0 3 0H45C46.6569 0 48 1.34315 48 3V45C48 46.6569 46.6569 48 45 48H3C1.34315 48 0 46.6569 0 45V3ZM2 2H46V36H2V2ZM8.91264 45.8615C9.05232 45.9988 9.21922 46.0675 9.41335 46.0675C9.54356 46.0675 9.66193 46.0355 9.76847 45.9716C9.875 45.9077 9.96023 45.8224 10.0241 45.7159C10.0904 45.607 10.1236 45.4875 10.1236 45.3572C10.1236 45.1631 10.0537 44.9974 9.91406 44.8601C9.77438 44.7204 9.60748 44.6506 9.41335 44.6506C9.21922 44.6506 9.05232 44.7204 8.91264 44.8601C8.77296 44.9974 8.70312 45.1631 8.70312 45.3572C8.70312 45.5537 8.77296 45.7218 8.91264 45.8615ZM11.631 38.7273V46H12.668V45.1513H12.7567C12.8207 45.2673 12.9118 45.3999 13.0302 45.549C13.1486 45.6982 13.3119 45.8284 13.5202 45.9396C13.7309 46.0509 14.002 46.1065 14.3335 46.1065C14.7738 46.1065 15.1656 45.9941 15.5089 45.7692C15.8522 45.5419 16.122 45.2188 16.3185 44.7997C16.515 44.3783 16.6133 43.8729 16.6133 43.2834C16.6133 42.6939 16.5138 42.1896 16.315 41.7706C16.1185 41.3516 15.8474 41.0308 15.5018 40.8082C15.1561 40.5857 14.7631 40.4744 14.3228 40.4744C13.9843 40.4744 13.712 40.5312 13.506 40.6449C13.3001 40.7562 13.1391 40.8864 13.0231 41.0355C12.9071 41.1847 12.8183 41.3161 12.7567 41.4297H12.6928V38.7273H11.631ZM12.8384 44.2812C12.7272 43.9924 12.6715 43.6562 12.6715 43.2727C12.6715 42.8939 12.726 42.5625 12.8349 42.2784C12.9438 41.9943 13.1036 41.773 13.3143 41.6143C13.5273 41.4557 13.7878 41.3764 14.0955 41.3764C14.4151 41.3764 14.6815 41.4593 14.8945 41.625C15.11 41.7907 15.271 42.0168 15.3775 42.3033C15.4864 42.5897 15.5408 42.9129 15.5408 43.2727C15.5408 43.6373 15.4852 43.9652 15.3739 44.2564C15.265 44.5476 15.104 44.7784 14.891 44.9489C14.6779 45.117 14.4128 45.201 14.0955 45.201C13.7901 45.201 13.5321 45.1205 13.3214 44.9595C13.1107 44.7962 12.9497 44.5701 12.8384 44.2812ZM18.8674 46V38.7273H17.8056V46H18.8674ZM21.2582 45.7656C21.6464 45.9953 22.1093 46.1101 22.6467 46.1101C23.0444 46.1101 23.3983 46.0497 23.7085 45.929C24.021 45.8059 24.2802 45.6342 24.4862 45.4141C24.6945 45.1915 24.8389 44.9323 24.9194 44.6364L23.9144 44.4553C23.8505 44.6257 23.7582 44.7689 23.6374 44.8849C23.5167 45.0009 23.3735 45.0885 23.2077 45.1477C23.042 45.2045 22.8585 45.233 22.6573 45.233C22.3472 45.233 22.0761 45.1667 21.8441 45.0341C21.6121 44.8991 21.431 44.7038 21.3008 44.4482C21.1817 44.2101 21.1181 43.9248 21.1099 43.5923H24.9869V43.2159C24.9869 42.7211 24.9206 42.3009 24.788 41.9553C24.6554 41.6072 24.4743 41.3243 24.2447 41.1065C24.015 40.8887 23.7558 40.7289 23.467 40.6271C23.1781 40.5253 22.8799 40.4744 22.5721 40.4744C22.0655 40.4744 21.6228 40.594 21.244 40.8331C20.8675 41.0722 20.574 41.4048 20.3633 41.831C20.1549 42.2571 20.0508 42.7495 20.0508 43.3082C20.0508 43.8741 20.1549 44.3677 20.3633 44.7891C20.574 45.2081 20.8723 45.5336 21.2582 45.7656ZM21.1117 42.7969C21.1245 42.5624 21.1827 42.3434 21.2866 42.1399C21.4073 41.9055 21.5778 41.7161 21.7979 41.5717C22.0205 41.425 22.2809 41.3516 22.5792 41.3516C22.8538 41.3516 23.0929 41.4143 23.2965 41.5398C23.5025 41.6652 23.6623 41.8369 23.7759 42.0547C23.8896 42.2701 23.9464 42.5175 23.9464 42.7969H21.1117ZM27.2267 46V42.7614C27.2267 42.4725 27.2812 42.2263 27.3901 42.0227C27.5014 41.8168 27.6517 41.6605 27.8411 41.554C28.0328 41.4474 28.2518 41.3942 28.498 41.3942C28.8579 41.3942 29.1408 41.5066 29.3468 41.7315C29.5527 41.9541 29.6557 42.263 29.6557 42.6584V46H30.7175V42.5305C30.7175 42.0807 30.6406 41.7031 30.4867 41.3977C30.3328 41.0923 30.1162 40.8627 29.8368 40.7088C29.5575 40.5526 29.2319 40.4744 28.8603 40.4744C28.4507 40.4744 28.111 40.562 27.8411 40.7372C27.5736 40.9124 27.3771 41.1444 27.2516 41.4332H27.1841V40.5455H26.1649V46H27.2267ZM33.0044 45.7692C33.3501 45.9941 33.7431 46.1065 34.1834 46.1065C34.5149 46.1065 34.7847 46.0509 34.9931 45.9396C35.2014 45.8284 35.3648 45.6982 35.4831 45.549C35.6039 45.3999 35.6962 45.2673 35.7601 45.1513H35.8489V46H36.8858V38.7273H35.824V41.4297H35.7601C35.6962 41.3161 35.6062 41.1847 35.4902 41.0355C35.3766 40.8864 35.2156 40.7562 35.0073 40.6449C34.8013 40.5312 34.5291 40.4744 34.1905 40.4744C33.7525 40.4744 33.3607 40.5857 33.0151 40.8082C32.6694 41.0308 32.3972 41.3516 32.1983 41.7706C32.0018 42.1896 31.9036 42.6939 31.9036 43.2834C31.9036 43.8729 32.0007 44.3783 32.1948 44.7997C32.3913 45.2188 32.6612 45.5419 33.0044 45.7692ZM35.1919 44.9595C34.9812 45.1205 34.7232 45.201 34.4178 45.201C34.1029 45.201 33.8378 45.117 33.6223 44.9489C33.4093 44.7784 33.2483 44.5476 33.1394 44.2564C33.0305 43.9652 32.976 43.6373 32.976 43.2727C32.976 42.9129 33.0293 42.5897 33.1358 42.3033C33.2447 42.0168 33.4057 41.7907 33.6188 41.625C33.8319 41.4593 34.0982 41.3764 34.4178 41.3764C34.7279 41.3764 34.9883 41.4557 35.199 41.6143C35.4097 41.773 35.5695 41.9943 35.6784 42.2784C35.7873 42.5625 35.8418 42.8939 35.8418 43.2727C35.8418 43.6562 35.7862 43.9924 35.6749 44.2812C35.566 44.5701 35.405 44.7962 35.1919 44.9595Z" fill="#C4C4C4"/>
<path d="M37.9121 20.3647C37.736 19.1469 37.3071 17.992 36.6366 16.9324C36.0519 16.0077 35.3017 15.1853 34.4062 14.4863L34.4086 14.4841L25.0039 7.38168C24.9971 7.37581 24.99 7.37028 24.9827 7.36511C24.67 7.12959 24.2467 7 23.7911 7C23.3349 7 22.895 7.12988 22.553 7.36586C22.1854 7.61841 21.9752 7.9535 21.9605 8.31019C21.9471 8.64297 22.1085 8.96318 22.4163 9.21278C23.0216 9.68237 23.6255 10.1622 24.2303 10.6426C24.8172 11.109 25.4219 11.5893 26.0238 12.057L14.5044 12.0493C13.1871 12.0493 12.2901 12.6575 12.1056 13.6759C12.0245 14.1219 12.1676 14.6123 12.4874 14.988C12.8267 15.3861 13.3194 15.6058 13.8746 15.6058L14.7528 15.6064C15.9659 15.6064 17.1844 15.6034 18.4013 15.6005L19.5617 15.5979L9.10692 23.2031L9.06542 23.2329C8.48145 23.673 8.09914 24.29 8.01665 24.9256C7.95413 25.4072 8.06838 25.8472 8.34718 26.1987C8.67947 26.6176 9.19827 26.8481 9.80814 26.8481C10.4073 26.8481 11.0186 26.6248 11.5303 26.2184L17.176 21.6754C17.1519 21.8973 17.1226 22.2227 17.1259 22.4589C17.1323 22.8329 17.2544 23.5834 17.4477 24.1926C17.8472 25.4446 18.52 26.5902 19.4475 27.5962C20.4125 28.6429 21.5879 29.4728 22.9406 30.0624C24.3708 30.6843 25.9082 31 27.5102 31H27.5251C29.1323 30.9962 30.6746 30.6755 32.1093 30.0464C33.4643 29.4499 34.6391 28.6166 35.6005 27.5701C36.5268 26.559 37.1987 25.4115 37.5974 24.1605C37.7947 23.5412 37.921 22.9022 37.9741 22.2554C38.0234 21.6302 38.0022 20.9941 37.9121 20.3647ZM27.6274 26.3658C24.0966 26.3658 21.2334 23.8474 21.2334 20.7406C21.2334 17.6342 24.0967 15.1158 27.6274 15.1158C31.1582 15.1158 34.0211 17.6342 34.0211 20.7406C34.0212 23.8474 31.1582 26.3658 27.6274 26.3658ZM31.3147 20.2463C31.3667 21.1736 30.9901 22.0345 30.3286 22.6719C29.6557 23.3212 28.6956 23.729 27.622 23.729C26.5488 23.729 25.5885 23.3212 24.9154 22.6719C24.2542 22.0345 23.8783 21.1737 23.9301 20.2471C23.9808 19.3464 24.4277 18.5513 25.1007 17.9884C25.7625 17.4349 26.6512 17.0972 27.6219 17.0972C28.5928 17.0972 29.4812 17.435 30.1431 17.9884C30.8165 18.5513 31.2634 19.3458 31.3147 20.2463Z" fill="#BDBDBD"/>
</svg>
